<svg version="1.1" id="Layer_1" xmlns="http://www.w3.org/2000/svg" xmlns:xlink="http://www.w3.org/1999/xlink" x="0px" y="0px"
	 width="100%" viewBox="0 0 527 739" enable-background="new 0 0 527 739" xml:space="preserve">
<path fill="#FFFFFF" opacity="1.000000" stroke="none" 
	d="
M0.999999,311.000000 
	C1.000000,207.746735 1.000000,104.493462 1.000000,1.000000 
	C85.687408,1.000000 170.375046,1.000000 255.361267,1.325976 
	C233.631226,8.424366 223.996872,21.391581 223.999817,44.257069 
	C224.002151,62.419430 223.496414,80.602356 224.236237,98.734528 
	C224.553787,106.517372 227.455078,114.194801 229.372650,122.770668 
	C226.061310,126.450989 221.311478,131.125534 217.291885,136.360779 
	C212.921402,142.053040 206.292191,143.390320 200.437729,146.126236 
	C186.985687,152.412735 174.299606,160.900330 158.654678,161.301636 
	C157.034454,161.343201 155.210403,162.493103 153.893997,163.613907 
	C150.052048,166.884918 146.374115,170.354172 142.717529,173.835663 
	C139.035767,177.341110 134.570969,180.416229 132.011063,184.628937 
	C126.073219,194.400604 123.097771,205.237122 123.554665,216.930664 
	C115.819298,219.665207 108.224556,221.803772 101.204132,225.147980 
	C93.169632,228.975250 89.772079,232.594254 93.105988,241.055969 
	C94.713982,245.137207 97.257736,248.849747 99.274193,252.539688 
	C93.454720,253.014389 87.460152,253.726578 81.447411,253.950500 
	C65.693115,254.537201 50.852386,258.436707 37.058258,266.021667 
	C23.636808,273.401733 12.224742,283.025452 5.493141,297.139008 
	C3.420271,301.485016 2.466302,306.364685 0.999999,311.000000 
z"/>
<path fill="#FFFFFF" opacity="1.000000" stroke="none" 
	d="
M273.000000,1.000000 
	C357.932098,1.000000 442.864166,1.000000 528.000000,1.000000 
	C528.000000,98.354134 528.000000,195.708405 527.594666,293.364075 
	C526.794922,288.589417 526.218323,283.519745 526.040100,278.436096 
	C525.505859,263.196381 519.190552,250.298645 508.371887,240.237305 
	C499.326935,231.825516 488.718872,225.165604 475.158295,226.959518 
	C473.872559,227.129593 471.984955,227.342331 471.289856,226.636307 
	C466.916809,222.194260 462.298950,224.330200 457.649292,225.712723 
	C456.112671,226.169617 454.582550,226.784866 453.008728,226.958481 
	C440.356110,228.354263 427.691071,229.637207 415.035645,231.008347 
	C410.032440,231.550415 405.043976,232.228622 400.029785,232.410645 
	C399.293304,221.126038 397.935638,210.350616 393.047913,200.497696 
	C389.552399,193.451416 385.958527,186.291595 381.259674,180.046936 
	C375.771698,172.753601 368.248535,168.664581 358.942657,165.906845 
	C345.035248,161.785477 332.008148,154.694702 318.604248,148.872406 
	C314.541351,147.107605 309.641510,146.256134 306.576447,143.418564 
	C300.206207,137.521133 294.806641,130.575165 288.863159,123.897316 
	C289.856964,122.809097 290.681580,121.791702 291.621796,120.895630 
	C296.790802,115.969315 299.200409,110.163185 299.102692,102.821098 
	C298.814636,81.179863 299.195892,59.529675 298.902863,37.888577 
	C298.786255,29.277786 296.679565,20.944830 291.298859,13.871487 
	C286.580048,7.668234 279.949615,4.083627 273.000000,1.000000 
z"/>
<path fill="#FFFFFF" opacity="1.000000" stroke="none" 
	d="
M528.000000,314.000000 
	C528.000000,455.881622 528.000000,597.763245 528.000000,740.000000 
	C495.313293,740.000000 462.625305,740.000000 429.464905,739.580200 
	C428.625763,728.228394 422.885681,719.268921 418.492981,709.751770 
	C416.049652,704.458008 414.355560,698.716980 413.082001,693.008362 
	C411.123169,684.228455 409.737488,675.316345 408.252533,666.436218 
	C406.238770,654.393860 404.836395,642.456116 407.690186,630.177246 
	C409.853210,620.870605 410.025208,611.257812 406.958038,601.817261 
	C404.079834,592.958435 401.673218,583.946411 399.415405,575.002563 
	C401.069977,575.901489 402.368164,576.799561 404.815918,578.492859 
	C385.065247,517.658997 365.678955,457.947449 346.223053,398.021515 
	C350.416962,398.021515 354.091003,397.836243 357.741028,398.054047 
	C372.493683,398.934326 387.238922,399.938721 402.290588,401.054688 
	C405.970093,403.448547 409.435852,405.562866 412.691650,407.962189 
	C415.075653,409.719055 417.254211,411.776581 419.400787,413.829376 
	C424.365356,418.577057 428.165009,425.947235 436.605591,423.798828 
	C441.094666,422.656189 445.760956,420.216400 449.112152,417.053467 
	C454.425934,412.038239 461.984833,409.510773 465.438202,402.454315 
	C465.588776,402.146606 466.358978,402.193176 466.769928,401.953552 
	C469.533478,400.342194 472.277954,398.698090 475.440491,397.037292 
	C478.653931,396.341492 481.483734,395.772400 484.252136,394.987000 
	C495.157257,391.893066 504.654999,386.364868 510.933807,376.808716 
	C522.632202,359.004150 527.186279,339.072937 527.049744,317.927460 
	C527.041321,316.620422 527.668579,315.309265 528.000000,314.000000 
z"/>
<path fill="#FFFFFF" opacity="1.000000" stroke="none" 
	d="
M86.000000,740.000000 
	C57.691277,740.000000 29.382551,740.000000 1.000000,740.000000 
	C1.000000,600.645752 1.000000,461.291534 1.390952,321.616547 
	C2.177175,323.844299 2.278799,326.481293 3.015445,328.927002 
	C7.746949,344.635773 16.197861,358.494507 26.150005,371.220825 
	C30.813461,377.184235 37.953537,381.210968 43.981491,386.073303 
	C43.991768,386.031189 43.907452,386.011200 43.992287,386.265503 
	C44.377739,386.681519 44.678356,386.843292 45.068161,387.337646 
	C49.669804,393.107910 54.466137,398.123688 61.179672,401.007721 
	C66.124702,403.132080 70.931152,405.617157 75.657097,408.201599 
	C79.624405,410.371185 82.897545,414.067291 88.144005,413.087341 
	C88.907906,412.944672 89.936378,413.731079 90.720482,414.266235 
	C94.662766,416.956879 102.483055,417.021912 105.738464,413.631958 
	C109.693893,409.512909 113.834145,406.784027 119.757797,405.968140 
	C131.719254,404.320770 142.094757,398.516266 152.447968,391.939331 
	C159.854935,391.565887 166.817245,391.139740 174.569565,390.665192 
	C152.961014,445.922882 131.754257,500.153046 110.232300,555.189331 
	C114.890961,554.727783 118.421066,554.378052 121.948639,554.418762 
	C117.649811,569.244995 113.486534,583.722168 109.011848,598.102539 
	C105.873230,608.189148 107.058617,618.316956 107.643333,628.542419 
	C108.068329,635.974976 109.581268,643.158813 107.447113,651.009216 
	C104.114502,663.268127 103.112106,676.152832 100.936455,688.740234 
	C100.488785,691.330261 99.519302,693.939026 98.265305,696.254822 
	C96.476532,699.558411 93.275177,702.340210 92.307922,705.800659 
	C89.183937,716.977173 84.421448,727.934814 86.000000,740.000000 
z"/>
<path fill="#C69C6D" opacity="1.000000" stroke="none" 
	d="
M272.532410,1.000000 
	C279.949615,4.083627 286.580048,7.668234 291.298859,13.871487 
	C296.679565,20.944830 298.786255,29.277786 298.902863,37.888577 
	C299.195892,59.529675 298.814636,81.179863 299.102692,102.821098 
	C299.200409,110.163185 296.790802,115.969315 291.621796,120.895630 
	C290.681580,121.791702 289.856964,122.809097 288.863159,123.897316 
	C294.806641,130.575165 300.206207,137.521133 306.576447,143.418564 
	C309.641510,146.256134 314.541351,147.107605 318.604248,148.872406 
	C332.008148,154.694702 345.035248,161.785477 358.942657,165.906845 
	C368.248535,168.664581 375.771698,172.753601 381.259674,180.046936 
	C385.958527,186.291595 389.552399,193.451416 393.047913,200.497696 
	C397.935638,210.350616 399.293304,221.126038 399.604980,232.489777 
	C397.548676,233.216125 395.893433,233.397903 394.248413,233.647003 
	C375.662598,236.461288 357.159729,240.191605 338.472382,241.869781 
	C316.945679,243.802917 295.257355,243.950256 273.637299,244.825806 
	C259.334503,245.405029 245.004410,245.549423 230.729568,246.520721 
	C211.656769,247.818481 192.625565,249.728134 173.576691,251.376984 
	C169.258652,251.750732 166.289688,249.899307 164.361206,246.047928 
	C161.084137,239.503311 157.761032,232.980179 154.346985,226.506180 
	C151.636810,221.366882 148.269211,216.774506 141.750931,216.621048 
	C135.822174,216.481476 129.883392,216.768402 123.949020,216.867340 
	C123.097771,205.237122 126.073219,194.400604 132.011063,184.628937 
	C134.570969,180.416229 139.035767,177.341110 142.717529,173.835663 
	C146.374115,170.354172 150.052048,166.884918 153.893997,163.613907 
	C155.210403,162.493103 157.034454,161.343201 158.654678,161.301636 
	C174.299606,160.900330 186.985687,152.412735 200.437729,146.126236 
	C206.292191,143.390320 212.921402,142.053040 217.291885,136.360779 
	C221.311478,131.125534 226.061310,126.450989 229.372650,122.770668 
	C227.455078,114.194801 224.553787,106.517372 224.236237,98.734528 
	C223.496414,80.602356 224.002151,62.419430 223.999817,44.257069 
	C223.996872,21.391581 233.631226,8.424366 255.829926,1.325976 
	C261.354919,1.000000 266.709869,1.000000 272.532410,1.000000 
z"/>
<path fill="#FFFFFF" opacity="1.000000" stroke="none" 
	d="
M365.000000,740.000000 
	C293.312439,740.000000 221.624878,740.000000 149.468994,739.572510 
	C149.336975,736.214050 149.575958,733.267822 150.029938,730.355225 
	C150.959854,724.389282 151.833054,718.554199 154.875183,712.996155 
	C168.139221,688.762817 180.970184,664.292725 194.039474,639.952148 
	C199.481369,629.816956 205.254730,619.858826 210.641083,609.694946 
	C215.860489,599.846191 221.034485,589.940796 223.531357,578.862610 
	C232.085144,581.781372 240.253967,584.654114 249.856979,588.031128 
	C246.027786,562.788940 252.049042,540.462280 259.289734,519.526611 
	C258.721069,541.153076 258.122589,563.914246 257.489624,587.985901 
	C262.745636,586.044312 266.837860,584.450073 270.986938,583.021118 
	C275.947449,581.312866 280.956665,579.745972 285.984253,578.474426 
	C289.397369,585.020508 292.581757,591.322266 296.177155,597.380005 
	C312.123993,624.247803 327.038513,651.658264 340.002167,680.100342 
	C343.264587,687.258057 346.187592,694.569824 349.390198,701.755676 
	C352.459808,708.643127 354.435791,716.554016 359.194824,722.004944 
	C364.166504,727.699524 365.524811,733.207092 365.000000,740.000000 
z"/>
<path fill="#C69C6D" opacity="1.000000" stroke="none" 
	d="
M223.146393,578.816528 
	C221.034485,589.940796 215.860489,599.846191 210.641083,609.694946 
	C205.254730,619.858826 199.481369,629.816956 194.039474,639.952148 
	C180.970184,664.292725 168.139221,688.762817 154.875183,712.996155 
	C151.833054,718.554199 150.959854,724.389282 150.029938,730.355225 
	C149.575958,733.267822 149.336975,736.214050 149.000336,739.572510 
	C128.312439,740.000000 107.624878,740.000000 86.468658,740.000000 
	C84.421448,727.934814 89.183937,716.977173 92.307922,705.800659 
	C93.275177,702.340210 96.476532,699.558411 98.265305,696.254822 
	C99.519302,693.939026 100.488785,691.330261 100.936455,688.740234 
	C103.112106,676.152832 104.114502,663.268127 107.447113,651.009216 
	C109.581268,643.158813 108.068329,635.974976 107.643333,628.542419 
	C107.058617,618.316956 105.873230,608.189148 109.011848,598.102539 
	C113.486534,583.722168 117.649811,569.244995 122.146812,554.091309 
	C127.675171,552.912109 133.443863,550.888733 138.257538,552.247803 
	C165.645279,559.980347 192.808731,568.508301 220.029510,576.827759 
	C221.164993,577.174866 222.111740,578.139526 223.146393,578.816528 
z"/>
<path fill="#C69C6D" opacity="1.000000" stroke="none" 
	d="
M365.468658,740.000000 
	C365.524811,733.207092 364.166504,727.699524 359.194824,722.004944 
	C354.435791,716.554016 352.459808,708.643127 349.390198,701.755676 
	C346.187592,694.569824 343.264587,687.258057 340.002167,680.100342 
	C327.038513,651.658264 312.123993,624.247803 296.177155,597.380005 
	C292.581757,591.322266 289.397369,585.020508 286.385925,578.352661 
	C321.992889,574.548645 357.273285,571.942932 392.714752,573.079773 
	C394.847870,573.148254 396.945129,574.335266 399.059082,575.001770 
	C401.673218,583.946411 404.079834,592.958435 406.958038,601.817261 
	C410.025208,611.257812 409.853210,620.870605 407.690186,630.177246 
	C404.836395,642.456116 406.238770,654.393860 408.252533,666.436218 
	C409.737488,675.316345 411.123169,684.228455 413.082001,693.008362 
	C414.355560,698.716980 416.049652,704.458008 418.492981,709.751770 
	C422.885681,719.268921 428.625763,728.228394 428.996246,739.580200 
	C407.979095,740.000000 386.958221,740.000000 365.468658,740.000000 
z"/>
<path fill="#040302" opacity="1.000000" stroke="none" 
	d="
M123.554665,216.930664 
	C129.883392,216.768402 135.822174,216.481476 141.750931,216.621048 
	C148.269211,216.774506 151.636810,221.366882 154.346985,226.506180 
	C157.761032,232.980179 161.084137,239.503311 164.361206,246.047928 
	C166.289688,249.899307 169.258652,251.750732 173.576691,251.376984 
	C192.625565,249.728134 211.656769,247.818481 230.729568,246.520721 
	C245.004410,245.549423 259.334503,245.405029 273.637299,244.825806 
	C295.257355,243.950256 316.945679,243.802917 338.472382,241.869781 
	C357.159729,240.191605 375.662598,236.461288 394.248413,233.647003 
	C395.893433,233.397903 397.548676,233.216125 399.623962,232.923950 
	C405.043976,232.228622 410.032440,231.550415 415.035645,231.008347 
	C427.691071,229.637207 440.356110,228.354263 453.008728,226.958481 
	C454.582550,226.784866 456.112671,226.169617 457.649292,225.712723 
	C462.298950,224.330200 466.916809,222.194260 471.289856,226.636307 
	C471.984955,227.342331 473.872559,227.129593 475.158295,226.959518 
	C488.718872,225.165604 499.326935,231.825516 508.371887,240.237305 
	C519.190552,250.298645 525.505859,263.196381 526.040100,278.436096 
	C526.218323,283.519745 526.794922,288.589417 527.594666,293.832764 
	C528.000000,300.354401 528.000000,306.708801 528.000000,313.531616 
	C527.668579,315.309265 527.041321,316.620422 527.049744,317.927460 
	C527.186279,339.072937 522.632202,359.004150 510.933807,376.808716 
	C504.654999,386.364868 495.157257,391.893066 484.252136,394.987000 
	C481.483734,395.772400 478.653931,396.341492 475.378662,396.675110 
	C477.272156,391.898804 479.639343,387.457336 482.380005,383.009949 
	C493.330505,379.789215 501.233826,373.488129 505.924866,363.294830 
	C507.588806,359.679169 509.884094,356.352081 511.518860,352.725433 
	C513.213562,348.965942 515.355774,345.090851 515.744080,341.114166 
	C517.535950,322.764435 519.315063,304.384216 520.096680,285.972382 
	C521.130615,261.619995 504.243042,238.451111 481.316742,231.926224 
	C479.513855,240.674149 477.715851,249.398422 475.917847,258.122711 
	C475.405640,258.127472 474.893433,258.132263 474.381256,258.137054 
	C473.758972,255.860229 473.081665,253.596741 472.525879,251.303787 
	C471.354584,246.471161 470.456482,241.561920 469.064423,236.795624 
	C466.938721,229.517334 464.355225,227.923172 457.378510,230.477722 
	C444.491089,235.196533 434.560791,243.325058 429.876465,256.751343 
	C427.798981,262.705872 426.362030,268.938232 423.759796,274.645752 
	C413.474518,297.204742 410.868042,320.177002 418.603363,344.117249 
	C417.120087,347.115967 415.952209,349.954742 414.556152,352.542725 
	C412.316956,344.588806 409.671936,336.984406 408.452972,329.157867 
	C406.874969,319.025909 405.547333,308.700409 408.938507,298.555756 
	C413.094940,286.121887 417.344452,273.717773 421.352325,261.236084 
	C424.554108,251.264893 428.838745,242.039032 437.162994,235.213699 
	C437.327393,235.078857 437.220245,234.612762 437.255951,234.044693 
	C425.849792,235.092972 414.460022,235.846680 403.149811,237.244293 
	C383.578369,239.662720 364.110168,243.016586 344.499146,244.988434 
	C322.385834,247.211899 300.176514,248.583679 277.982178,249.861771 
	C263.544128,250.693237 249.056030,250.627274 234.595154,251.108002 
	C229.624969,251.273193 224.663559,251.816055 219.708221,252.291534 
	C207.336105,253.478683 194.967636,254.705246 182.602722,255.965088 
	C179.744537,256.256287 176.906372,256.744080 174.059006,257.141418 
	C173.770401,257.686890 173.481812,258.232391 173.193222,258.777863 
	C176.403641,262.640717 179.512863,266.593842 182.853378,270.340698 
	C186.096710,273.978577 191.423569,275.791443 193.201935,282.263855 
	C191.484665,281.242950 190.630844,280.890076 189.969391,280.315674 
	C186.864105,277.618988 183.742371,274.934692 180.755280,272.109833 
	C175.109024,266.770233 168.763214,261.929962 164.150024,255.797470 
	C157.987701,247.605667 153.224701,238.364716 147.806747,229.607742 
	C145.670578,226.155060 143.380783,224.919342 139.265747,227.624313 
	C130.786148,233.198288 121.775085,237.925705 111.557716,239.523285 
	C107.568794,240.146988 103.489510,240.192795 99.451378,240.501816 
	C99.294937,240.914841 99.138489,241.327866 98.982048,241.740891 
	C104.149719,246.602341 109.000717,251.867065 114.558708,256.231415 
	C123.050186,262.899261 127.996033,270.754547 125.982056,281.914215 
	C124.691750,289.063934 122.807724,295.847504 115.448494,299.406036 
	C116.398521,294.819397 118.176247,290.568695 119.335693,286.155548 
	C120.977325,279.906982 123.189964,273.178833 118.703850,267.458099 
	C113.598862,260.948120 108.038330,256.354614 98.023842,256.542847 
	C75.325989,256.969513 54.615971,262.486145 35.967300,275.162689 
	C22.579929,284.262848 13.585293,296.545441 13.092226,313.418732 
	C12.811565,323.023285 15.079733,332.258331 20.323505,340.439087 
	C26.306196,349.772552 32.624210,358.891052 38.982239,368.437805 
	C40.769058,374.553528 42.370132,380.334473 43.971210,386.115387 
	C37.953537,381.210968 30.813461,377.184235 26.150005,371.220825 
	C16.197861,358.494507 7.746949,344.635773 3.015445,328.927002 
	C2.278799,326.481293 2.177175,323.844299 1.390952,321.147888 
	C1.000000,317.969391 1.000000,314.938812 0.999999,311.454102 
	C2.466302,306.364685 3.420271,301.485016 5.493141,297.139008 
	C12.224742,283.025452 23.636808,273.401733 37.058258,266.021667 
	C50.852386,258.436707 65.693115,254.537201 81.447411,253.950500 
	C87.460152,253.726578 93.454720,253.014389 99.274193,252.539688 
	C97.257736,248.849747 94.713982,245.137207 93.105988,241.055969 
	C89.772079,232.594254 93.169632,228.975250 101.204132,225.147980 
	C108.224556,221.803772 115.819298,219.665207 123.554665,216.930664 
M122.166023,222.643356 
	C112.893585,224.468201 104.905075,229.085098 95.720871,233.684341 
	C110.383278,238.625229 131.140030,231.958664 137.711670,221.018906 
	C135.695007,221.018906 133.736267,220.852737 131.817062,221.057419 
	C128.855637,221.373260 125.921288,221.942993 122.166023,222.643356 
z"/>
<path fill="#000000" opacity="1.000000" stroke="none" 
	d="
M399.415405,575.002563 
	C396.945129,574.335266 394.847870,573.148254 392.714752,573.079773 
	C357.273285,571.942932 321.992889,574.548645 286.346375,577.995972 
	C280.956665,579.745972 275.947449,581.312866 270.986938,583.021118 
	C266.837860,584.450073 262.745636,586.044312 257.489624,587.985901 
	C258.122589,563.914246 258.721069,541.153076 259.289734,519.526611 
	C252.049042,540.462280 246.027786,562.788940 249.856979,588.031128 
	C240.253967,584.654114 232.085144,581.781372 223.531372,578.862610 
	C222.111740,578.139526 221.164993,577.174866 220.029510,576.827759 
	C192.808731,568.508301 165.645279,559.980347 138.257538,552.247803 
	C133.443863,550.888733 127.675171,552.912109 122.149345,553.700928 
	C118.421066,554.378052 114.890961,554.727783 110.232300,555.189331 
	C131.754257,500.153046 152.961014,445.922882 174.569565,390.665192 
	C166.817245,391.139740 159.854935,391.565887 152.254410,391.616882 
	C139.638016,390.155334 127.659843,389.068970 115.229790,387.941620 
	C115.931496,386.162048 116.808983,383.936646 118.134094,381.814087 
	C129.203445,382.281860 139.822632,382.826538 150.447418,382.976868 
	C178.717224,383.376892 207.002487,383.175507 235.256912,384.029633 
	C261.961334,384.836823 288.636993,386.634033 315.319824,388.095978 
	C325.089417,388.631226 334.837646,389.548553 344.605469,390.124481 
	C360.827606,391.080963 377.057678,391.902435 393.571381,392.943481 
	C396.567871,395.703247 399.277374,398.300293 401.986877,400.897339 
	C387.238922,399.938721 372.493683,398.934326 357.741028,398.054047 
	C354.091003,397.836243 350.416962,398.021515 346.223053,398.021515 
	C365.678955,457.947449 385.065247,517.658997 404.815918,578.492859 
	C402.368164,576.799561 401.069977,575.901489 399.415405,575.002563 
z"/>
<path fill="#C59B6C" opacity="1.000000" stroke="none" 
	d="
M402.290588,401.054688 
	C399.277374,398.300293 396.567871,395.703247 393.808075,392.671204 
	C397.772461,391.660950 401.787109,391.085693 406.977936,390.341949 
	C403.352203,385.946747 399.880951,382.412384 397.244934,378.337646 
	C394.996674,374.862335 393.345428,370.872498 392.175995,366.891205 
	C391.713379,365.316315 393.267181,363.149078 393.902893,361.251556 
	C395.870789,362.175995 398.332306,362.635895 399.717896,364.108276 
	C404.715088,369.418640 409.297577,375.116974 414.176849,380.542725 
	C414.924225,381.373779 416.551483,382.085510 417.507233,381.836548 
	C418.222839,381.650177 418.824799,379.856781 418.918549,378.732300 
	C419.053467,377.114441 418.785431,375.436310 418.506989,373.815247 
	C417.302307,366.801788 416.031219,359.799713 414.784332,352.793518 
	C415.952209,349.954742 417.120087,347.115967 419.000549,344.129639 
	C424.891205,343.893097 425.336945,347.989807 425.910217,351.480682 
	C427.392944,360.508911 428.548065,369.590942 429.967712,379.593689 
	C430.912048,378.081970 431.837280,377.294312 431.794891,376.562683 
	C431.307068,368.140808 430.555511,359.733246 430.138275,351.308777 
	C429.985413,348.221832 429.789703,344.746185 431.038452,342.127319 
	C431.787384,340.556641 435.970825,339.019226 437.387238,339.771210 
	C439.219604,340.744019 440.657074,343.960571 440.813019,346.307465 
	C441.264984,353.109863 440.676880,359.979889 441.097382,366.786285 
	C441.463776,372.716217 442.646973,378.595673 443.469208,384.497437 
	C443.917053,384.473999 444.364899,384.450531 444.812744,384.427063 
	C444.812744,382.577362 444.892639,380.723633 444.799622,378.878632 
	C444.224060,367.459961 443.559692,356.045319 443.088715,344.622589 
	C443.043732,343.531921 443.928833,341.667542 444.730865,341.450378 
	C445.922363,341.127808 448.151886,341.519836 448.663391,342.372955 
	C450.404419,345.276733 452.296051,348.398102 452.835419,351.651062 
	C453.996826,358.655365 454.049957,365.840149 455.137878,372.860992 
	C455.952026,378.114929 456.265778,383.815247 460.311737,387.052673 
	C467.151825,386.266541 470.111816,382.006683 472.234467,376.680084 
	C473.011017,374.731323 474.340332,372.771027 475.943970,371.460083 
	C477.134918,370.486542 479.341187,369.956818 480.780945,370.357758 
	C481.792725,370.639557 482.853607,372.808441 482.877228,374.152496 
	C482.929047,377.100922 482.336151,380.060730 482.006500,383.015869 
	C479.639343,387.457336 477.272156,391.898804 474.966797,396.702454 
	C472.277954,398.698090 469.533478,400.342194 466.769928,401.953552 
	C466.358978,402.193176 465.588776,402.146606 465.438202,402.454315 
	C461.984833,409.510773 454.425934,412.038239 449.112152,417.053467 
	C445.760956,420.216400 441.094666,422.656189 436.605591,423.798828 
	C428.165009,425.947235 424.365356,418.577057 419.400787,413.829376 
	C417.254211,411.776581 415.075653,409.719055 412.691650,407.962189 
	C409.435852,405.562866 405.970093,403.448547 402.290588,401.054688 
z"/>
<path fill="#C59B6C" opacity="1.000000" stroke="none" 
	d="
M117.686478,381.711273 
	C116.808983,383.936646 115.931496,386.162048 115.229790,387.941620 
	C127.659843,389.068970 139.638016,390.155334 151.809753,391.564178 
	C142.094757,398.516266 131.719254,404.320770 119.757797,405.968140 
	C113.834145,406.784027 109.693893,409.512909 105.738464,413.631958 
	C102.483055,417.021912 94.662766,416.956879 90.720482,414.266235 
	C89.936378,413.731079 88.907906,412.944672 88.144005,413.087341 
	C82.897545,414.067291 79.624405,410.371185 75.657097,408.201599 
	C70.931152,405.617157 66.124702,403.132080 61.179672,401.007721 
	C54.466137,398.123688 49.669804,393.107910 45.017994,387.040283 
	C44.554913,386.277313 44.231182,386.144257 43.907452,386.011200 
	C43.907452,386.011200 43.991768,386.031189 43.981491,386.073303 
	C42.370132,380.334473 40.769058,374.553528 39.055649,368.040100 
	C40.074501,362.882080 42.797638,361.756561 46.366268,364.074249 
	C50.051041,366.467407 52.049511,369.777039 53.023907,374.045410 
	C53.897381,377.871735 56.995869,379.001129 60.644180,379.057037 
	C64.483521,379.115875 65.082527,376.180450 65.871857,373.487793 
	C66.380768,371.751770 67.016739,369.918579 66.927032,368.163116 
	C66.313530,356.158325 73.238579,346.437439 76.700981,335.682251 
	C77.071159,334.532379 79.285370,332.977875 80.215073,333.225037 
	C81.884102,333.668701 83.573563,335.099518 84.590767,336.575317 
	C85.328430,337.645569 84.995224,339.453888 85.160797,341.149658 
	C85.408585,341.221863 85.635124,341.077515 85.961304,340.570343 
	C86.529251,338.803680 86.818665,337.301544 87.519531,336.025421 
	C88.138412,334.898651 89.216179,334.023926 90.091324,333.037903 
	C91.086021,333.947632 92.517838,334.674988 92.988647,335.803284 
	C94.132462,338.544525 94.829643,341.472076 95.706757,344.324585 
	C96.065300,344.396942 96.423843,344.469299 96.782379,344.541656 
	C97.274017,340.464844 97.765663,336.388062 98.560638,332.126343 
	C101.252853,332.679901 104.503876,332.727875 105.797668,334.343353 
	C107.202110,336.096985 106.785179,339.309357 107.104713,342.340332 
	C106.492767,347.220642 105.960983,351.649200 105.379532,356.071198 
	C104.297127,364.303162 103.185806,372.531342 102.086517,380.761078 
	C102.624924,380.901642 103.163330,381.042206 103.701736,381.182770 
	C108.240387,369.220856 117.254990,360.586609 125.468758,351.379059 
	C126.340714,350.401611 128.958389,349.456451 129.353821,349.864624 
	C130.542801,351.091888 132.102600,353.467712 131.621292,354.559082 
	C128.636978,361.325989 125.166252,367.880768 121.784409,374.468719 
	C120.518700,376.934387 119.058174,379.300049 117.686478,381.711273 
M80.490234,359.477966 
	C82.006836,354.194794 83.523438,348.911621 85.040039,343.628448 
	C84.499588,343.482269 83.959145,343.336060 83.418694,343.189850 
	C81.976738,348.805542 80.534782,354.421234 78.930229,360.816986 
	C77.941704,366.195374 75.635796,371.587341 77.851761,376.932770 
	C78.558159,376.939117 79.264549,376.945435 79.970947,376.951782 
	C79.970947,371.301208 79.970947,365.650635 80.490234,359.477966 
M91.028786,367.745361 
	C90.467476,372.034851 89.906166,376.324310 89.344849,380.613800 
	C90.029694,380.672028 90.714546,380.730286 91.399391,380.788513 
	C91.968643,375.466400 92.537895,370.144257 93.107155,364.822144 
	C92.570229,364.761993 92.033310,364.701843 91.496384,364.641693 
	C91.355522,365.403229 91.214653,366.164764 91.028786,367.745361 
z"/>
<path fill="#040302" opacity="1.000000" stroke="none" 
	d="
M43.992287,386.265503 
	C44.231182,386.144257 44.554913,386.277313 44.928810,386.707703 
	C44.678356,386.843292 44.377739,386.681519 43.992287,386.265503 
z"/>
<path fill="#5F3813" opacity="1.000000" stroke="none" 
	d="
M98.257309,332.311249 
	C97.765663,336.388062 97.274017,340.464844 96.782379,344.541656 
	C96.423843,344.469299 96.065300,344.396942 95.706757,344.324585 
	C94.829643,341.472076 94.132462,338.544525 92.988647,335.803284 
	C92.517838,334.674988 91.086021,333.947632 90.091324,333.037903 
	C89.216179,334.023926 88.138412,334.898651 87.519531,336.025421 
	C86.818665,337.301544 86.529251,338.803680 85.780960,340.582031 
	C85.500992,340.956543 85.139542,340.933105 85.139542,340.933105 
	C84.995224,339.453888 85.328430,337.645569 84.590767,336.575317 
	C83.573563,335.099518 81.884102,333.668701 80.215073,333.225037 
	C79.285370,332.977875 77.071159,334.532379 76.700981,335.682251 
	C73.238579,346.437439 66.313530,356.158325 66.927032,368.163116 
	C67.016739,369.918579 66.380768,371.751770 65.871857,373.487793 
	C65.082527,376.180450 64.483521,379.115875 60.644180,379.057037 
	C56.995869,379.001129 53.897381,377.871735 53.023907,374.045410 
	C52.049511,369.777039 50.051041,366.467407 46.366268,364.074249 
	C42.797638,361.756561 40.074501,362.882080 38.869904,367.705261 
	C32.624210,358.891052 26.306196,349.772552 20.323505,340.439087 
	C15.079733,332.258331 12.811565,323.023285 13.092226,313.418732 
	C13.585293,296.545441 22.579929,284.262848 35.967300,275.162689 
	C54.615971,262.486145 75.325989,256.969513 98.023842,256.542847 
	C108.038330,256.354614 113.598862,260.948120 118.703850,267.458099 
	C123.189964,273.178833 120.977325,279.906982 119.335693,286.155548 
	C118.176247,290.568695 116.398521,294.819397 115.448494,299.406036 
	C122.807724,295.847504 124.691750,289.063934 125.982056,281.914215 
	C127.996033,270.754547 123.050186,262.899261 114.558708,256.231415 
	C109.000717,251.867065 104.149719,246.602341 98.982048,241.740891 
	C99.138489,241.327866 99.294937,240.914841 99.451378,240.501816 
	C103.489510,240.192795 107.568794,240.146988 111.557716,239.523285 
	C121.775085,237.925705 130.786148,233.198288 139.265747,227.624313 
	C143.380783,224.919342 145.670578,226.155060 147.806747,229.607742 
	C153.224701,238.364716 157.987701,247.605667 164.150024,255.797470 
	C168.763214,261.929962 175.109024,266.770233 180.755280,272.109833 
	C183.742371,274.934692 186.864105,277.618988 189.969391,280.315674 
	C190.630844,280.890076 191.484665,281.242950 193.201935,282.263855 
	C191.423569,275.791443 186.096710,273.978577 182.853378,270.340698 
	C179.512863,266.593842 176.403641,262.640717 173.193222,258.777863 
	C173.481812,258.232391 173.770401,257.686890 174.059006,257.141418 
	C176.906372,256.744080 179.744537,256.256287 182.602722,255.965088 
	C194.967636,254.705246 207.336105,253.478683 219.708221,252.291534 
	C224.663559,251.816055 229.624969,251.273193 234.595154,251.108002 
	C249.056030,250.627274 263.544128,250.693237 277.982178,249.861771 
	C300.176514,248.583679 322.385834,247.211899 344.499146,244.988434 
	C364.110168,243.016586 383.578369,239.662720 403.149811,237.244293 
	C414.460022,235.846680 425.849792,235.092972 437.255951,234.044693 
	C437.220245,234.612762 437.327393,235.078857 437.162994,235.213699 
	C428.838745,242.039032 424.554108,251.264893 421.352325,261.236084 
	C417.344452,273.717773 413.094940,286.121887 408.938507,298.555756 
	C405.547333,308.700409 406.874969,319.025909 408.452972,329.157867 
	C409.671936,336.984406 412.316956,344.588806 414.556152,352.542725 
	C416.031219,359.799713 417.302307,366.801788 418.506989,373.815247 
	C418.785431,375.436310 419.053467,377.114441 418.918549,378.732300 
	C418.824799,379.856781 418.222839,381.650177 417.507233,381.836548 
	C416.551483,382.085510 414.924225,381.373779 414.176849,380.542725 
	C409.297577,375.116974 404.715088,369.418640 399.717896,364.108276 
	C398.332306,362.635895 395.870789,362.175995 393.902893,361.251556 
	C393.267181,363.149078 391.713379,365.316315 392.175995,366.891205 
	C393.345428,370.872498 394.996674,374.862335 397.244934,378.337646 
	C399.880951,382.412384 403.352203,385.946747 406.977936,390.341949 
	C401.787109,391.085693 397.772461,391.660950 393.521118,392.508484 
	C377.057678,391.902435 360.827606,391.080963 344.605469,390.124481 
	C334.837646,389.548553 325.089417,388.631226 315.319824,388.095978 
	C288.636993,386.634033 261.961334,384.836823 235.256912,384.029633 
	C207.002487,383.175507 178.717224,383.376892 150.447418,382.976868 
	C139.822632,382.826538 129.203445,382.281860 118.134094,381.814087 
	C119.058174,379.300049 120.518700,376.934387 121.784409,374.468719 
	C125.166252,367.880768 128.636978,361.325989 131.621292,354.559082 
	C132.102600,353.467712 130.542801,351.091888 129.353821,349.864624 
	C128.958389,349.456451 126.340714,350.401611 125.468758,351.379059 
	C117.254990,360.586609 108.240387,369.220856 103.701736,381.182770 
	C103.163330,381.042206 102.624924,380.901642 102.086517,380.761078 
	C103.185806,372.531342 104.297127,364.303162 105.379532,356.071198 
	C105.960983,351.649200 106.492767,347.220642 107.404816,342.207977 
	C113.756767,336.036499 113.259567,333.114502 105.599091,329.917725 
	C102.233551,328.513275 98.644478,327.630585 95.319405,326.146790 
	C91.802704,324.577484 90.849998,321.348328 92.816414,318.936737 
	C97.078850,313.709351 107.425972,314.090393 111.795181,320.511566 
	C112.277245,318.375549 113.336266,316.376434 112.767281,315.646667 
	C111.561150,314.099701 109.628372,312.508911 107.776924,312.188690 
	C101.998581,311.189362 96.540047,312.660095 91.559517,315.754547 
	C85.967453,319.229004 85.946884,325.604340 91.582275,329.008057 
	C93.699814,330.287079 96.026161,331.220337 98.257309,332.311249 
M378.054108,321.923553 
	C376.127167,318.984680 374.867004,314.794189 372.146515,313.344879 
	C364.412964,309.224884 355.897430,310.531830 347.597107,312.080963 
	C347.435303,312.111176 347.368744,312.651520 347.257721,312.953857 
	C348.429321,315.138672 349.186432,317.323975 348.988586,319.419037 
	C348.212006,327.643555 347.119202,335.837921 346.176666,344.047211 
	C345.830444,347.062622 346.759064,348.617188 350.119507,347.386322 
	C354.311340,345.850983 358.554749,344.456085 362.741333,342.907043 
	C373.182739,339.043640 378.086670,332.575043 378.054108,321.923553 
M335.444489,344.220764 
	C337.193665,344.515839 338.942810,344.810913 340.691986,345.106018 
	C339.847626,343.573792 339.345032,341.632202 338.093658,340.587463 
	C334.588348,337.660950 330.773773,335.104858 326.868042,332.246582 
	C329.656891,330.398224 331.947571,329.097565 333.985901,327.479095 
	C337.206787,324.921600 339.703949,321.203430 337.405182,317.565247 
	C335.748627,314.943512 331.913879,312.750702 328.755066,312.256622 
	C324.455200,311.584015 319.850922,312.557159 315.432709,313.204010 
	C314.583832,313.328278 313.693390,315.119202 313.359070,316.294098 
	C312.975647,317.641357 313.307007,319.173645 313.125610,320.599854 
	C312.226837,327.666382 311.090637,334.709015 310.449188,341.797241 
	C310.303925,343.402313 311.795776,345.155548 312.534027,346.840576 
	C313.364258,345.493439 314.738983,344.219330 314.931030,342.786652 
	C315.788483,336.390259 316.201141,329.935547 316.978302,323.526642 
	C317.866608,316.200836 321.060486,313.729370 328.267822,315.190002 
	C330.284363,315.598602 333.002289,317.242493 333.540558,318.916931 
	C334.069489,320.562500 332.820038,323.770020 331.314056,324.861969 
	C328.630432,326.807770 325.161377,327.666443 322.028961,328.998901 
	C320.591064,329.610596 319.172546,330.267792 317.878571,330.844879 
	C324.129211,335.648895 329.468597,339.752594 335.444489,344.220764 
M267.160889,315.930145 
	C267.348602,315.291595 267.852509,314.532074 267.663330,314.037750 
	C267.144684,312.682434 266.334717,311.438599 265.640076,310.150635 
	C264.758392,311.300659 263.450073,312.334045 263.096252,313.628387 
	C262.581543,315.511139 263.147552,317.712982 262.538055,319.540405 
	C261.719299,321.995270 260.625000,325.823273 258.936279,326.251556 
	C253.620621,327.599640 247.971878,327.634277 241.590408,328.262177 
	C242.067017,324.456482 242.583649,321.727753 242.701797,318.981903 
	C242.812622,316.406555 244.459869,312.921936 239.266754,311.969879 
	C237.777328,322.633972 236.264786,332.930267 235.000793,343.257019 
	C234.858917,344.416199 236.124222,345.747589 236.917526,347.367920 
	C237.907913,346.275391 238.432434,345.959595 238.532440,345.542114 
	C239.033997,343.448212 239.549591,341.344238 239.831451,339.213562 
	C240.839630,331.592316 240.804276,331.582367 248.366928,331.033112 
	C249.195953,330.972900 250.034439,330.977600 250.865250,331.018829 
	C254.118423,331.180176 257.370300,331.368317 260.622681,331.546478 
	C260.277893,334.992859 259.714203,338.437286 259.683929,341.886444 
	C259.669495,343.525421 260.672028,345.173401 261.213867,346.817291 
	C262.168884,345.362518 263.753693,343.996857 263.974243,342.438141 
	C265.181610,333.903961 266.054199,325.322388 267.160889,315.930145 
M289.934723,312.207184 
	C289.651337,312.377441 289.254883,312.478027 289.100800,312.727966 
	C282.923676,322.748962 276.724945,332.757477 270.692566,342.865143 
	C270.206543,343.679535 270.883057,345.187775 271.019379,346.373566 
	C272.208557,345.829041 274.191467,345.539337 274.461121,344.699585 
	C276.590302,338.068115 282.122284,336.994354 287.806885,336.050690 
	C289.113525,335.833771 290.516846,335.342438 291.728485,335.619965 
	C293.358490,335.993317 295.329803,336.601532 296.292511,337.800934 
	C298.240112,340.227356 299.400513,343.280182 301.312744,345.742981 
	C302.111328,346.771515 303.999359,346.954132 305.392029,347.521362 
	C305.254272,346.012970 305.664795,344.095306 304.892395,343.060699 
	C298.483368,334.476227 295.544373,324.504333 292.835266,314.392029 
	C292.596161,313.499420 291.423889,312.856781 289.934723,312.207184 
M163.710495,313.048523 
	C157.832352,322.678162 151.891861,332.271057 146.161926,341.988098 
	C145.510056,343.093536 146.040192,344.895996 146.022247,346.375244 
	C147.301651,345.689697 149.394836,345.276276 149.729645,344.274902 
	C152.063858,337.293488 158.072235,336.942505 163.806641,335.981598 
	C164.786728,335.817413 165.870544,335.345886 166.732376,335.602020 
	C168.354263,336.084045 170.327652,336.607422 171.294571,337.807037 
	C173.142578,340.099762 174.145981,343.071411 175.984467,345.374481 
	C176.904968,346.527557 178.891983,346.829285 180.396637,347.516052 
	C180.164108,345.868958 180.483749,343.809052 179.610504,342.640961 
	C173.393112,334.324524 170.803238,324.558655 167.826172,314.898102 
	C167.503265,313.850311 165.495682,313.321686 163.710495,313.048523 
M203.783585,326.330658 
	C206.034698,323.897949 208.245605,321.426483 210.545425,319.040710 
	C215.077209,314.339569 215.097610,314.359222 213.841446,310.980011 
	C208.611008,316.313995 203.419724,321.608063 197.849869,327.288177 
	C195.595505,324.356689 194.266571,322.482819 192.786606,320.736969 
	C190.329422,317.838379 187.909973,314.881042 185.172577,312.264465 
	C184.434128,311.558624 182.607056,311.991669 181.279678,311.901917 
	C181.735352,313.184174 182.160934,314.478668 182.671951,315.738464 
	C182.774643,315.991577 183.266205,316.059265 183.470184,316.303040 
	C189.371613,323.355469 197.729874,329.309082 194.054840,340.600983 
	C193.564407,342.107880 193.790436,343.919769 193.996490,345.551056 
	C194.098495,346.358551 194.910278,347.076416 195.400940,347.834869 
	C196.222824,347.163269 197.314163,346.639435 197.787170,345.776581 
	C198.219360,344.988251 197.836472,343.798157 198.064270,342.845245 
	C199.369644,337.384827 197.739273,330.938965 203.783585,326.330658 
M140.883926,316.033386 
	C144.112915,316.033386 147.341919,316.033386 150.570908,316.033386 
	C150.748566,315.548981 150.926208,315.064606 151.103867,314.580200 
	C150.167282,313.754944 149.190216,312.172028 148.300247,312.219574 
	C137.236023,312.810547 126.184456,313.638519 115.129639,314.405548 
	C115.169708,315.073181 115.209778,315.740784 115.249847,316.408386 
	C119.986801,316.408386 124.723755,316.408386 129.941422,316.408386 
	C129.801147,318.402374 129.679657,320.165680 129.552597,321.928589 
	C129.065033,328.693390 128.435776,335.453583 128.220673,342.226990 
	C128.183548,343.395935 129.901459,344.620636 130.808685,345.819580 
	C131.487244,344.670319 132.701416,343.545166 132.754410,342.367737 
	C133.027954,336.290924 132.885284,330.196014 133.124023,324.116730 
	C133.294296,319.780884 134.385040,315.932281 140.883926,316.033386 
z"/>
<path fill="#A67C52" opacity="1.000000" stroke="none" 
	d="
M482.380005,383.009949 
	C482.336151,380.060730 482.929047,377.100922 482.877228,374.152496 
	C482.853607,372.808441 481.792725,370.639557 480.780945,370.357758 
	C479.341187,369.956818 477.134918,370.486542 475.943970,371.460083 
	C474.340332,372.771027 473.011017,374.731323 472.234467,376.680084 
	C470.111816,382.006683 467.151825,386.266541 460.311737,387.052673 
	C456.265778,383.815247 455.952026,378.114929 455.137878,372.860992 
	C454.049957,365.840149 453.996826,358.655365 452.835419,351.651062 
	C452.296051,348.398102 450.404419,345.276733 448.663391,342.372955 
	C448.151886,341.519836 445.922363,341.127808 444.730865,341.450378 
	C443.928833,341.667542 443.043732,343.531921 443.088715,344.622589 
	C443.559692,356.045319 444.224060,367.459961 444.799622,378.878632 
	C444.892639,380.723633 444.812744,382.577362 444.812744,384.427063 
	C444.364899,384.450531 443.917053,384.473999 443.469208,384.497437 
	C442.646973,378.595673 441.463776,372.716217 441.097382,366.786285 
	C440.676880,359.979889 441.264984,353.109863 440.813019,346.307465 
	C440.657074,343.960571 439.219604,340.744019 437.387238,339.771210 
	C435.970825,339.019226 431.787384,340.556641 431.038452,342.127319 
	C429.789703,344.746185 429.985413,348.221832 430.138275,351.308777 
	C430.555511,359.733246 431.307068,368.140808 431.794891,376.562683 
	C431.837280,377.294312 430.912048,378.081970 429.967712,379.593689 
	C428.548065,369.590942 427.392944,360.508911 425.910217,351.480682 
	C425.336945,347.989807 424.891205,343.893097 419.315979,343.969666 
	C410.868042,320.177002 413.474518,297.204742 423.759796,274.645752 
	C426.362030,268.938232 427.798981,262.705872 429.876465,256.751343 
	C434.560791,243.325058 444.491089,235.196533 457.378510,230.477722 
	C464.355225,227.923172 466.938721,229.517334 469.064423,236.795624 
	C470.456482,241.561920 471.354584,246.471161 472.525879,251.303787 
	C473.081665,253.596741 473.758972,255.860229 474.381256,258.137054 
	C474.893433,258.132263 475.405640,258.127472 475.917847,258.122711 
	C477.715851,249.398422 479.513855,240.674149 481.316742,231.926224 
	C504.243042,238.451111 521.130615,261.619995 520.096680,285.972382 
	C519.315063,304.384216 517.535950,322.764435 515.744080,341.114166 
	C515.355774,345.090851 513.213562,348.965942 511.518860,352.725433 
	C509.884094,356.352081 507.588806,359.679169 505.924866,363.294830 
	C501.233826,373.488129 493.330505,379.789215 482.380005,383.009949 
z"/>
<path fill="#BE9669" opacity="1.000000" stroke="none" 
	d="
M122.570740,222.524200 
	C125.921288,221.942993 128.855637,221.373260 131.817062,221.057419 
	C133.736267,220.852737 135.695007,221.018906 137.711670,221.018906 
	C131.140030,231.958664 110.383278,238.625229 95.720871,233.684341 
	C104.905075,229.085098 112.893585,224.468201 122.570740,222.524200 
z"/>
<path fill="#060402" opacity="1.000000" stroke="none" 
	d="
M98.560646,332.126343 
	C96.026161,331.220337 93.699814,330.287079 91.582275,329.008057 
	C85.946884,325.604340 85.967453,319.229004 91.559517,315.754547 
	C96.540047,312.660095 101.998581,311.189362 107.776924,312.188690 
	C109.628372,312.508911 111.561150,314.099701 112.767281,315.646667 
	C113.336266,316.376434 112.277245,318.375549 111.795181,320.511566 
	C107.425972,314.090393 97.078850,313.709351 92.816414,318.936737 
	C90.849998,321.348328 91.802704,324.577484 95.319405,326.146790 
	C98.644478,327.630585 102.233551,328.513275 105.599091,329.917725 
	C113.259567,333.114502 113.756767,336.036499 107.462570,341.753265 
	C106.785179,339.309357 107.202110,336.096985 105.797668,334.343353 
	C104.503876,332.727875 101.252853,332.679901 98.560646,332.126343 
z"/>
<path fill="#643C17" opacity="1.000000" stroke="none" 
	d="
M79.970947,360.000061 
	C79.970947,365.650635 79.970947,371.301208 79.970947,376.951782 
	C79.264549,376.945435 78.558159,376.939117 77.851761,376.932770 
	C75.635796,371.587341 77.941704,366.195374 79.230545,360.408386 
	C79.530853,359.999756 79.970947,360.000061 79.970947,360.000061 
z"/>
<path fill="#754D26" opacity="1.000000" stroke="none" 
	d="
M91.051285,367.335815 
	C91.214653,366.164764 91.355522,365.403229 91.496384,364.641693 
	C92.033310,364.701843 92.570229,364.761993 93.107155,364.822144 
	C92.537895,370.144257 91.968643,375.466400 91.399391,380.788513 
	C90.714546,380.730286 90.029694,380.672028 89.344849,380.613800 
	C89.906166,376.324310 90.467476,372.034851 91.051285,367.335815 
z"/>
<path fill="#7F572F" opacity="1.000000" stroke="none" 
	d="
M80.230591,359.739014 
	C79.970947,360.000061 79.530853,359.999756 79.311836,360.018341 
	C80.534782,354.421234 81.976738,348.805542 83.418694,343.189850 
	C83.959145,343.336060 84.499588,343.482269 85.040039,343.628448 
	C83.523438,348.911621 82.006836,354.194794 80.230591,359.739014 
z"/>
<path fill="#7F572F" opacity="1.000000" stroke="none" 
	d="
M85.160797,341.149658 
	C85.139542,340.933105 85.500992,340.956543 85.681335,340.944855 
	C85.635124,341.077515 85.408585,341.221863 85.160797,341.149658 
z"/>
<path fill="#050301" opacity="1.000000" stroke="none" 
	d="
M378.069702,322.352661 
	C378.086670,332.575043 373.182739,339.043640 362.741333,342.907043 
	C358.554749,344.456085 354.311340,345.850983 350.119507,347.386322 
	C346.759064,348.617188 345.830444,347.062622 346.176666,344.047211 
	C347.119202,335.837921 348.212006,327.643555 348.988586,319.419037 
	C349.186432,317.323975 348.429321,315.138672 347.257721,312.953857 
	C347.368744,312.651520 347.435303,312.111176 347.597107,312.080963 
	C355.897430,310.531830 364.412964,309.224884 372.146515,313.344879 
	C374.867004,314.794189 376.127167,318.984680 378.069702,322.352661 
M360.149139,339.862396 
	C363.939484,337.258148 368.366669,335.235138 371.385834,331.927094 
	C377.426605,325.308289 374.192261,315.972870 365.525940,314.372253 
	C361.903229,313.703156 358.053955,314.261017 353.957428,314.261017 
	C353.095367,321.146027 352.451630,327.574341 351.451477,333.946716 
	C350.225067,341.760773 350.982483,342.556152 358.448303,340.351410 
	C358.767242,340.257202 359.080475,340.143860 360.149139,339.862396 
z"/>
<path fill="#040201" opacity="1.000000" stroke="none" 
	d="
M335.126221,344.038513 
	C329.468597,339.752594 324.129211,335.648895 317.878571,330.844879 
	C319.172546,330.267792 320.591064,329.610596 322.028961,328.998901 
	C325.161377,327.666443 328.630432,326.807770 331.314056,324.861969 
	C332.820038,323.770020 334.069489,320.562500 333.540558,318.916931 
	C333.002289,317.242493 330.284363,315.598602 328.267822,315.190002 
	C321.060486,313.729370 317.866608,316.200836 316.978302,323.526642 
	C316.201141,329.935547 315.788483,336.390259 314.931030,342.786652 
	C314.738983,344.219330 313.364258,345.493439 312.534027,346.840576 
	C311.795776,345.155548 310.303925,343.402313 310.449188,341.797241 
	C311.090637,334.709015 312.226837,327.666382 313.125610,320.599854 
	C313.307007,319.173645 312.975647,317.641357 313.359070,316.294098 
	C313.693390,315.119202 314.583832,313.328278 315.432709,313.204010 
	C319.850922,312.557159 324.455200,311.584015 328.755066,312.256622 
	C331.913879,312.750702 335.748627,314.943512 337.405182,317.565247 
	C339.703949,321.203430 337.206787,324.921600 333.985901,327.479095 
	C331.947571,329.097565 329.656891,330.398224 326.868042,332.246582 
	C330.773773,335.104858 334.588348,337.660950 338.093658,340.587463 
	C339.345032,341.632202 339.847626,343.573792 340.691986,345.106018 
	C338.942810,344.810913 337.193665,344.515839 335.126221,344.038513 
z"/>
<path fill="#060301" opacity="1.000000" stroke="none" 
	d="
M267.101379,316.343628 
	C266.054199,325.322388 265.181610,333.903961 263.974243,342.438141 
	C263.753693,343.996857 262.168884,345.362518 261.213867,346.817291 
	C260.672028,345.173401 259.669495,343.525421 259.683929,341.886444 
	C259.714203,338.437286 260.277893,334.992859 260.622681,331.546509 
	C257.370300,331.368317 254.118423,331.180176 250.865250,331.018829 
	C250.034439,330.977600 249.195953,330.972900 248.366928,331.033112 
	C240.804276,331.582367 240.839630,331.592316 239.831451,339.213562 
	C239.549591,341.344238 239.033997,343.448212 238.532440,345.542114 
	C238.432434,345.959595 237.907913,346.275391 236.917526,347.367920 
	C236.124222,345.747589 234.858917,344.416199 235.000793,343.257019 
	C236.264786,332.930267 237.777328,322.633972 239.266754,311.969879 
	C244.459869,312.921936 242.812622,316.406555 242.701797,318.981903 
	C242.583649,321.727753 242.067017,324.456482 241.590408,328.262177 
	C247.971878,327.634277 253.620621,327.599640 258.936279,326.251556 
	C260.625000,325.823273 261.719299,321.995270 262.538055,319.540405 
	C263.147552,317.712982 262.581543,315.511139 263.096252,313.628387 
	C263.450073,312.334045 264.758392,311.300659 265.640076,310.150635 
	C266.334717,311.438599 267.144684,312.682434 267.663330,314.037750 
	C267.852509,314.532074 267.348602,315.291595 267.101379,316.343628 
z"/>
<path fill="#050301" opacity="1.000000" stroke="none" 
	d="
M290.309875,312.152618 
	C291.423889,312.856781 292.596161,313.499420 292.835266,314.392029 
	C295.544373,324.504333 298.483368,334.476227 304.892395,343.060699 
	C305.664795,344.095306 305.254272,346.012970 305.392029,347.521362 
	C303.999359,346.954132 302.111328,346.771515 301.312744,345.742981 
	C299.400513,343.280182 298.240112,340.227356 296.292511,337.800934 
	C295.329803,336.601532 293.358490,335.993317 291.728485,335.619965 
	C290.516846,335.342438 289.113525,335.833771 287.806885,336.050690 
	C282.122284,336.994354 276.590302,338.068115 274.461121,344.699585 
	C274.191467,345.539337 272.208557,345.829041 271.019379,346.373566 
	C270.883057,345.187775 270.206543,343.679535 270.692566,342.865143 
	C276.724945,332.757477 282.923676,322.748962 289.100800,312.727966 
	C289.254883,312.478027 289.651337,312.377441 290.309875,312.152618 
M284.449768,327.979736 
	C283.633148,329.697235 282.816559,331.414734 281.555420,334.067139 
	C286.265564,333.120605 289.893982,332.391449 293.989655,331.568390 
	C292.534027,327.267090 291.210419,323.355865 289.480865,318.245056 
	C287.504303,322.090942 286.158356,324.709839 284.449768,327.979736 
z"/>
<path fill="#050301" opacity="1.000000" stroke="none" 
	d="
M163.990021,312.800354 
	C165.495682,313.321686 167.503265,313.850311 167.826172,314.898102 
	C170.803238,324.558655 173.393112,334.324524 179.610504,342.640961 
	C180.483749,343.809052 180.164108,345.868958 180.396637,347.516052 
	C178.891983,346.829285 176.904968,346.527557 175.984467,345.374481 
	C174.145981,343.071411 173.142578,340.099762 171.294571,337.807037 
	C170.327652,336.607422 168.354263,336.084045 166.732376,335.602020 
	C165.870544,335.345886 164.786728,335.817413 163.806641,335.981598 
	C158.072235,336.942505 152.063858,337.293488 149.729645,344.274902 
	C149.394836,345.276276 147.301651,345.689697 146.022247,346.375244 
	C146.040192,344.895996 145.510056,343.093536 146.161926,341.988098 
	C151.891861,332.271057 157.832352,322.678162 163.990021,312.800354 
M168.165344,329.163177 
	C167.082916,325.920654 166.000488,322.678162 164.494370,318.166443 
	C161.575165,323.905670 159.245560,328.485748 156.387253,334.105255 
	C160.647751,333.244965 163.692657,332.744690 166.658356,331.949066 
	C167.380600,331.755280 167.842514,330.591064 168.165344,329.163177 
z"/>
<path fill="#050301" opacity="1.000000" stroke="none" 
	d="
M203.566467,326.619568 
	C197.739273,330.938965 199.369644,337.384827 198.064270,342.845245 
	C197.836472,343.798157 198.219360,344.988251 197.787170,345.776581 
	C197.314163,346.639435 196.222824,347.163269 195.400940,347.834839 
	C194.910278,347.076416 194.098495,346.358551 193.996490,345.551056 
	C193.790436,343.919769 193.564407,342.107880 194.054840,340.600983 
	C197.729874,329.309082 189.371613,323.355469 183.470184,316.303040 
	C183.266205,316.059265 182.774643,315.991577 182.671951,315.738464 
	C182.160934,314.478668 181.735352,313.184174 181.279678,311.901917 
	C182.607056,311.991669 184.434128,311.558624 185.172577,312.264465 
	C187.909973,314.881042 190.329422,317.838379 192.786606,320.736969 
	C194.266571,322.482819 195.595505,324.356689 197.849869,327.288177 
	C203.419724,321.608063 208.611008,316.313995 213.841446,310.980011 
	C215.097610,314.359222 215.077209,314.339569 210.545425,319.040710 
	C208.245605,321.426483 206.034698,323.897949 203.566467,326.619568 
z"/>
<path fill="#040301" opacity="1.000000" stroke="none" 
	d="
M140.436523,316.075714 
	C134.385040,315.932281 133.294296,319.780884 133.124023,324.116730 
	C132.885284,330.196014 133.027954,336.290924 132.754410,342.367737 
	C132.701416,343.545166 131.487244,344.670319 130.808685,345.819580 
	C129.901459,344.620636 128.183548,343.395935 128.220673,342.226990 
	C128.435776,335.453583 129.065033,328.693390 129.552597,321.928589 
	C129.679657,320.165680 129.801147,318.402374 129.941422,316.408386 
	C124.723755,316.408386 119.986801,316.408386 115.249847,316.408386 
	C115.209778,315.740784 115.169708,315.073181 115.129639,314.405548 
	C126.184456,313.638519 137.236023,312.810547 148.300247,312.219574 
	C149.190216,312.172028 150.167282,313.754944 151.103867,314.580200 
	C150.926208,315.064606 150.748566,315.548981 150.570908,316.033386 
	C147.341919,316.033386 144.112915,316.033386 140.436523,316.075714 
z"/>
<path fill="#5E3713" opacity="1.000000" stroke="none" 
	d="
M359.772766,339.950928 
	C359.080475,340.143860 358.767242,340.257202 358.448303,340.351410 
	C350.982483,342.556152 350.225067,341.760773 351.451477,333.946716 
	C352.451630,327.574341 353.095367,321.146027 353.957428,314.261017 
	C358.053955,314.261017 361.903229,313.703156 365.525940,314.372253 
	C374.192261,315.972870 377.426605,325.308289 371.385834,331.927094 
	C368.366669,335.235138 363.939484,337.258148 359.772766,339.950928 
z"/>
<path fill="#593412" opacity="1.000000" stroke="none" 
	d="
M284.631073,327.654236 
	C286.158356,324.709839 287.504303,322.090942 289.480865,318.245056 
	C291.210419,323.355865 292.534027,327.267090 293.989655,331.568390 
	C289.893982,332.391449 286.265564,333.120605 281.555420,334.067139 
	C282.816559,331.414734 283.633148,329.697235 284.631073,327.654236 
z"/>
<path fill="#593412" opacity="1.000000" stroke="none" 
	d="
M168.294739,329.518127 
	C167.842514,330.591064 167.380600,331.755280 166.658356,331.949066 
	C163.692657,332.744690 160.647751,333.244965 156.387253,334.105255 
	C159.245560,328.485748 161.575165,323.905670 164.494370,318.166443 
	C166.000488,322.678162 167.082916,325.920654 168.294739,329.518127 
z"/>
</svg>