<?xml version="1.0" encoding="UTF-8"?>
<svg id="Lag_2" data-name="Lag 2" xmlns="http://www.w3.org/2000/svg" viewBox="0 0 525.4 739">
  <defs>
    <style>
      .cls-1 {
        letter-spacing: -.04em;
      }

      .cls-2 {
        fill: #a67c52;
      }

      .cls-2, .cls-3, .cls-4, .cls-5 {
        stroke-width: 0px;
      }

      .cls-6 {
        font-family: SegoePrint, 'Segoe Print';
        font-size: 48px;
      }

      .cls-4 {
        fill: #603813;
      }

      .cls-5 {
        fill: #c69c6d;
      }
    </style>
  </defs>
  <g id="Layer_1" data-name="Layer 1">
    <path class="cls-5" d="m262.22,0c-16.03,0-33,15-36,23s-4,13-4,13v10.38l1,57.62s2.75,11.01,5.4,14.76c.54.77,1.08,1.24,1.6,1.24l18,16h24.18l18.82-18s8-11,5-15l.67-56.62v-11.35l-2.67-12.04S286.22,0,262.22,0Z"/>
    <path class="cls-5" d="m230.22,120l-6,6-7,8-7,7-8,3-16,8-17,7-4,2s-10-4-18,7-19,5-25,43v37.85l42-.85v-26l2,29,189-5,1-24v23.8l43,.2v-6.75l-4-27.25s-13-45-38-46l-39-17-14-6-18-20-8,7-34,2-14-12Z"/>
    <g>
      <polygon class="cls-3" points="99.9 252.2 81.06 253.08 66.73 254.75 56.35 257.05 44.7 261.01 34.81 265.8 25.75 271.69 16.86 279.22 11.3 285.24 7.31 290.75 4.21 296.36 1.82 302.52 .06 311.85 0 317.93 1.08 325.94 3.88 334.48 7.71 342.18 12.78 351.27 17.89 360.26 24.77 370.08 31.33 377.03 38.94 382.84 44.35 386.19 51.73 386.28 63.1 386.12 77.6 386.78 94.65 388.1 113.29 389.42 136.16 390.23 154.73 390.11 173.74 389.07 193.35 388.85 219.26 389.32 242.66 390.52 297.05 394.35 337.78 396.42 365.36 397.22 389.67 398.99 416.81 400.12 430.44 399.81 445.9 398.91 455.07 397.23 460.05 396.32 463.42 396.58 469.22 396.26 476.08 395.07 486.71 392.02 494.07 388.69 501.31 383.83 508.39 376.26 514.82 364.69 520.66 349.56 523.47 336.42 524.7 322.52 525.32 310.33 525.4 297.22 524.73 284.19 522.78 269.27 520.43 261.11 515.2 250.32 505.94 239.36 496.52 232.43 488.09 228.1 477.9 225.92 469.58 227.11 467.1 224.39 463.16 223.13 453.38 226.19 438.54 228.34 418.4 230.51 402.21 231.71 393.03 232.67 379.65 234.96 356.18 238.62 337.02 241.29 319.53 241.96 294.57 242.81 273.43 243.88 248.24 244.85 230.52 245.4 211.35 248.15 197.17 249.73 184.21 250.06 169.97 250.63 164.99 249.58 158.85 238.76 151.05 222.8 145.26 216.76 135.33 214.85 125.64 215.49 109.55 220.13 96.11 226.43 91.15 231.72 91.02 236.37 92.67 242.57 96.43 248.22 99.9 252.2"/>
      <polygon class="cls-2" points="443.09 236.14 438.04 240.3 434.77 243.81 430.98 249.33 428.66 254.24 426.21 261.84 424.18 268.73 421.25 276.03 418.68 282.26 417.23 286.32 415.93 290.45 414.39 296.48 412.92 305.15 412.42 311.55 412.48 318.84 412.97 324.2 414.48 332.46 416.37 339.38 418.44 345.87 420.9 353.01 423.41 360.32 425.18 365.83 426.58 369.24 428.62 372.69 431.24 375.81 435.04 379.04 440.25 382.08 444.68 383.93 450.46 385.6 457.05 386.31 463.85 386.1 469.21 385.11 476.61 383.36 482.64 381.43 488.21 378.97 492.79 376.21 497.11 372.59 501.09 367.65 504.15 361.87 507.42 355.66 510.51 350.09 512.9 344.81 513.78 341.42 514.56 335.18 515.51 327.08 516.52 317.81 517.34 309.06 517.96 300.58 518.28 294.34 518.49 284.16 518.29 274.62 517.18 268.06 515.41 263.35 513.27 259.06 509.44 253.17 504.58 247.5 499.05 242.43 492.39 237.52 485.98 233.62 481.19 231.09 479.86 230.43 478.79 234.5 478.16 238.53 477.18 242.12 476.31 247.01 475.58 251.19 474.98 254.73 474.72 256.73 473.75 257.58 472.55 257.47 471.95 256.26 470.78 251.62 470.43 247.54 469.77 244.87 468.35 239.9 467.19 235.57 465.34 230.79 463.61 228.87 459.93 228.55 454.57 229.79 450.22 231.83 446.62 233.82 443.09 236.14"/>
      <polygon class="cls-4" points="439.08 391.73 430.05 392.5 421.78 392.91 413.91 392.53 406.53 392.19 389.73 391.56 373.44 390.96 357.47 390.18 345 389.31 333.4 388.4 322.67 387.66 311.01 386.93 298.33 386.21 287 385.57 266.82 384.38 251.85 383.45 226.41 382.12 209.99 381.83 191.29 381.56 168.94 381.74 147.15 382.01 126.52 381.69 102.46 379.85 80.8 378.09 65.24 377.44 51.96 377.63 47.4 377.8 43.92 376.08 39.44 370.95 36.16 366.38 33.4 363.19 32.05 360.81 26.11 352.81 24.52 350.2 20.62 343.33 17.37 336.6 13.7 329.66 12.36 322.03 11.15 315.54 11.62 306.61 13.92 298.82 17.95 290.87 24.23 282.63 31.58 275.97 41.78 269.38 50.71 264.99 64.77 259.66 78.4 256.67 91.17 255.99 100.08 255.74 103.63 255.43 108.17 257.83 114.23 263.07 118.35 268.29 119.46 274.4 118.4 282.18 115.83 290.27 113.17 296.81 113.42 299.51 115.96 298.11 120.79 292.86 124.05 283.74 124.75 274.74 123 265.19 114.88 257.23 106.28 249.35 98.09 241.39 96.64 239.81 99.73 239.24 106.08 239.21 114.96 237.61 126.12 233.48 135.73 227.83 141.83 224.18 145.08 227.2 150.53 236.31 155.44 245.74 161.53 254.4 166.89 260.96 174.64 268.22 182.75 273.84 185.9 276.41 188.48 279.99 190.62 281.34 191.4 278.99 187.52 274.47 181.52 269.7 176.77 265.06 173.85 260.94 171.61 256.31 178.37 255.01 190.29 254.68 205.43 253.2 222.02 250.92 244.6 249.72 271.14 249.13 301.18 247.52 330.19 245.53 354.3 243.32 373.6 240.48 393.54 237.2 410.54 235.49 427.52 233.85 437.42 232.63 432.26 237.35 428.58 241.08 424.3 247.13 420.67 257.25 416.69 267.39 414.46 275.34 411.71 282.13 408.13 293.02 406.09 301.72 404.98 306.93 405.28 316.48 406.62 328.59 408.79 337.12 410.77 346.21 413.63 354.51 416.9 363.51 418.56 369.95 421.8 376.85 426.27 382.79 431.47 387.15 439.08 391.73"/>
      <polygon class="cls-5" points="137.37 219.61 126.55 220.49 118.63 222.17 110.36 224.54 107.58 226.44 99.61 229.83 96.17 231.39 94.49 233.39 100.54 234.49 107.73 234.62 117.04 232.58 125.34 229.23 131.19 225.66 137.37 219.61"/>
    </g>
    <text class="cls-6" transform="translate(81.81 344.51)"><tspan x="0" y="0">S</tspan><tspan class="cls-1" x="30.66" y="0">TA</tspan><tspan x="96.47" y="0">Y HARD</tspan></text>
    <polygon class="cls-5" points="150.22 390 144.22 394 137.22 398 128.22 402 120.22 404 114.22 406 110.08 406 105.22 411 100.22 415 94.81 415 90.22 414 88.22 412 82.22 412 75.22 407 70.22 404 67.32 402.5 64.22 401 61.22 400 55.22 398 52.22 395 49.22 392 46.37 390 43.22 385 40.22 380 39.22 375 39.22 371.25 39.22 369.29 37.22 367 37.22 364.49 38.22 363 40.22 362 43.1 362 45.22 364 49.22 367 51.22 374 53.22 377 57.22 378 61.22 378 63.22 376 65.22 369 65.22 360 68.22 352 71.22 345 73.22 338 76.22 332 79.1 332 81.22 333 83.22 336 83.22 340 80.22 347 78.22 354 76.22 363 75.22 369 75.22 376 78.22 377 78.22 367 78.22 360 80.22 353 81.22 349 83.22 343 85.22 337 86.73 332 89.79 332 91.22 335 93.22 339 92.22 346 91.22 352 90.22 358 89.22 368 88.26 373.5 87.22 380 89.22 380 90.22 376 91.22 366 91.22 359 93.72 350.75 95.22 344 96.22 337 96.77 332 98.22 330 102.22 331 104.22 333 105.22 337 105.22 343 104.22 352 101.22 364 101.22 371 101.22 376 101.22 382 105.72 372.5 110.22 366 115.22 360 123.22 351 126.22 348 128.22 349 130.22 351 129.22 356 126.22 362 122.22 371 118.22 375 114.22 383 113.22 388 123.22 388 136.22 388 150.22 390"/>
    <polygon class="cls-5" points="391.22 391 400.22 399 408.22 405 416.22 409 420.22 415 426.22 421 431.22 423 436.04 423 441.22 419 446.22 417 451.22 412 456.33 407 460.22 406 463.22 401 468.22 399 472.22 396 476.22 390 479.22 383 481.22 373 480.22 369 475.1 369 472.22 373 469.22 378 466.22 384 461.22 385 459.22 387 455.22 382 453.22 372 452.22 361 450.22 346 448.22 342 445.22 340 442.59 340 441.22 342 441.22 348 441.28 356.5 441.22 363 442.22 373 443.9 381.5 443.22 387 441.22 388 441.22 379 439.22 370 439.22 359 439.22 348 438.22 341 436.22 338.53 432.22 339 430.22 340 428.22 342 428.22 347 429.22 354 429.22 362 429.22 372 430.22 380 430.22 384 428.22 380 427.22 373 426.22 366 424.92 356.5 423.22 347 421.22 343 417.22 343 414.22 345 413.22 348 413.22 352 413.79 356.5 415.22 365 417.22 374 417.5 380.76 414.22 382 407.22 374 401.22 367 396.22 361 392.22 360 390.22 362 390.22 365.15 390.22 368.42 393.22 375 397.22 379 402.22 385 404.22 388 405.22 390 391.22 391"/>
    <polygon class="cls-3" points="173.74 389.07 109.22 554 132.22 550 154.22 556 182.22 564 207.22 572 230.22 580 246.22 586 247.22 552 259.22 509 257.22 539 257.21 586 280.22 577 321.22 576 336.22 575 344.22 572 365.22 572 393.22 572 399.22 574 402.22 577 343.62 396.59 258.39 391.63 210.37 389.16 173.74 389.07"/>
    <polygon class="cls-5" points="121.26 551.91 116.22 570 110.22 590 105.22 605 105.22 617.87 107.22 635 107.22 646 104.22 657 102.22 668 99.22 682 99.22 693.22 91.22 704 88.22 715 85.22 725 84.22 734 84.22 739 146.66 739 149.22 718 176.22 667 198.22 627 215.22 595 221.41 576.93 169.68 560.42 142.78 552.88 132.22 550 121.26 551.91"/>
    <polygon class="cls-5" points="284.24 576.9 308.22 619 324.22 648 340.22 682 351.22 707 357.22 720 363.22 727 363.22 739 426.52 739 425.22 728 415.22 707 411.22 696 408.22 679 404.22 654 404.22 635 407.22 618 406.22 607 402.22 594.31 397.22 576 396.72 573.16 374.15 572 348.84 572 284.24 576.9"/>
  </g>
</svg>