<?xml version="1.0" encoding="UTF-8"?>
<svg id="Lag_2" data-name="Lag 2" xmlns="http://www.w3.org/2000/svg" viewBox="0 0 821.16 267">
  <defs>
    <style>
      .cls-1 {
        fill: #fff;
      }

      .cls-1, .cls-2 {
        stroke-width: 0px;
      }

      .cls-2 {
        fill: #ebffff;
      }
    </style>
  </defs>
  <g id="Layer_1" data-name="Layer 1">
    <path class="cls-2" d="m18,54l11-10h13.03l6.97,2,6,5,5,5h2.6l7.91-6,3.48-3,5.48-3,2.52-4,4-4,2.98-6.5,1.02-5.5,1-7,2-5,5-4,6-3,6-3h6.93l8.07-2h26.75l10.25,3,8,2,7,4,7,7,6,5,9.22,7,3.78,4,6,4,7,2s7,2,9,2,10,1,10,1l9,1h21s6,0,8,1,5,2,5,6v26.46l7,2.54s7,0,8,1,8,1,8,1c0,0,3,1,6-3s3-4,7-6,2-3,12-4,11-1,19-1,8-2,12,0,5,5,9,2,3-2,6-5,1.01-1,5.51-7,1.49-5,6.49-9-1-4.89,6.5-6.94,5.5-4.06,14.5-5.06,14-1,14-1c0,0,7,1,11,2s11,3,14,4,3,0,8,1l15,3,4,4c2,2,4,6,4,6l4,4,8,2,14,1h9l14.5-1.36,8.5-7.64,7-4,6-4,9-7h9l13-2,11,2,4.71,3.06,6.29,3.94,11,5,11,3,13,2s7,2,11,4,15,7,15,7h4c2,0,16-1,16-1l9-1,7-4s2-4,6-5,6-1,8-1h9c6,0,19,1,21,2s9,3,9,3l8,5,9,3s5-1,9,0,4,0,8,0,14-2,14-2h11l6,3,2,2-8.08,11.11-1.92,6.89v6c0,1,1,2,0,5l-3,9c-1,3-5,10-5,10,0,0-2,1-3,3s-2,5-4,7-4,3-4,6-1,9-1,9l-1,6s-1,4-1,6-4,10-4,10v10s-1,2,0,4,3,7,3,7l3,7,2,2,7,8,4,2,6,4,5,11-1,9,1,20v7c0,2-.49,12-.49,12H18V54Z"/>
    <path class="cls-1" d="m24,128l11-4,3-4s8-3,9-5,2-3,5-5,8-5,9-6,5-6,5-6l9-2s6-3,8-3,18,3,18,3c0,0,10,1,12,3s11.32,11.5,11.32,11.5l7.68,6.5,11,4,9.8,7h8.44s1.63,4,3.69,5.5,7.07,3.5,11.07,4.5,8,1,12,1h15l13-2,8.54-3.5s5.31-5.5,7.38-5.5,8.08-3,10.08-3,12-1,12-1c0,0,10,1,12,2s7-1,12,3,7.51,9,8.25,10,2.75,6,2.75,6l4,6h11l9-5,8.07-7s6.93-9,6.93-11,1-3,4-3,7.27-5,9.64-3,4.57-4,8.97,0,7.4,6,10.4,7,8.35,1,10.18,4.5-2.18,2.5,1.82,3.5,3,0,10,0h19s4,0,7,3,8,6.67,8,6.67l6.92,4.33h17.41c4.67,3,6.67,8,7.67,11l1,3v8.04s1,1.96,8,2.96,7.41-1,9.7,0,6.58,3.58,8.44.29,8.86-5.29,8.86-5.29l8,2s6,4,7,6-1,4,4,8,7,4,9,6,15.89,0,15.89,0l13.11-8,4-8s13-2,15-2,20,1,20,1l16,3h16c2,0,10-3,10-3l7-8s2-5,6-8,7-6,10-8,15-6,15-6h15s4.82,1.89,6.91-2.56,6.68-8.44,7.38-9.94,5.7-5.5,5.7-5.5c0,0-2-4,10-3s15,1,15,1c0,0,11,2,14,5l6,6s4,2,6,2,10-2,10-2l5-7,14-3h15l2.68,6.5-7.68,8.5-2,12-2.81,7.52-1.19,9.41v7.07l3,7,1.75,4.08,3.25,4.92,3.45,3.94,3.55,4.06,4,2,6,4,2.33,5.12,1.39,3.06,4.28,1.82,3,4.1,2,3.9v8.23s-2,1.56-2,3.16v10.55s-1,3.55,0,5.8,2,5.8,2,5.8c0,0,4,2.45,3,3.45l-1,1-4,3H18l-7-5-7-5v-3.78l-4-6.22v-3.27l5-7.73,4-3s3-6,2-8,0-2-2-4-2-1-2-4-1-7,1-8l6-3c2-1,5,0,6-3s4-5,4-7v-6c0-2,1-3,1-6v-3c0-3-1-2-1-5v-25l-1-7,1-8v-8Z"/>
  </g>
</svg>