<?xml version="1.0" encoding="UTF-8"?>
<svg id="Lag_2" data-name="Lag 2" xmlns="http://www.w3.org/2000/svg" viewBox="0 0 122.74 127.02">
  <defs>
    <style>
      .cls-1 {
        fill: #ed1c24;
        stroke-width: 0px;
      }
    </style>
  </defs>
  <g id="Layer_1" data-name="Layer 1">
    <path class="cls-1" d="m61.63,20.45s10.68-16.13,18.78-18.06,14.47-1.94,14.47-1.94c0,0,11.93.58,22.76,14.54,10.83,13.95,1.01,48.65,1.01,48.65,0,0-4.73,10.09-9.26,15.22s-47.77,48.17-47.77,48.17L14.28,79.14s-7.42-7.2-12.43-23.27c-5.01-16.07,1.72-37.66,1.72-37.66C3.57,18.21,13.73,1.8,23.38,1.61s5.44-5.18,24.34,3.42c0,0,11.84,9.45,13.91,15.42Z"/>
  </g>
</svg>