<?xml version="1.0" encoding="UTF-8"?>
<svg id="Lag_2" data-name="Lag 2" xmlns="http://www.w3.org/2000/svg" viewBox="0 0 85.05 94.06">
  <defs>
    <style>
      .cls-1 {
        fill: #a67c52;
      }

      .cls-1, .cls-2, .cls-3, .cls-4 {
        stroke-width: 0px;
      }

      .cls-3 {
        fill: #603813;
      }

      .cls-4 {
        fill: #c69c6d;
      }
    </style>
  </defs>
  <g id="Layer_1" data-name="Layer 1">
    <g>
      <polygon class="cls-2" points="6.46 66.26 4.43 69.37 3.13 71.88 2.43 73.83 1.97 76.22 1.92 78.44 2.22 80.67 2.92 83.09 3.67 84.79 4.48 86.16 5.43 87.41 6.58 88.62 8.55 90.15 9.96 90.98 11.96 91.89 14.28 92.59 16.53 93.02 19.26 93.44 21.96 93.83 25.07 94.06 27.47 93.95 29.73 93.53 31.15 93.12 32.04 91.96 33.35 90.13 35.23 87.91 37.56 85.38 40.08 82.59 42.97 79.07 45.15 76.1 47.16 72.94 49.43 69.79 52.61 65.74 55.67 62.18 63.01 54.05 68.32 47.86 71.78 43.58 75.07 39.96 78.56 35.79 80.1 33.59 81.72 31.01 82.42 29.32 82.79 28.41 83.25 27.91 83.87 26.95 84.4 25.7 84.95 23.59 85.05 21.98 84.77 20.17 83.84 18.03 81.91 15.45 79.07 12.49 76.33 10.27 73.24 8.21 70.47 6.47 67.41 4.69 64.29 3.04 60.58 1.35 58.4 .62 55.26 0 51.6 0 48.87 .56 46.86 1.32 45.14 2.65 44.43 4.13 43.5 4.16 42.74 4.61 42.3 6.58 41.04 9.23 39.16 12.72 37.52 15.46 36.66 17.04 35.6 19.48 33.68 23.7 32.03 27.11 30.11 29.98 27.35 34.06 25.09 37.56 22.33 41.7 20.36 44.59 18.73 48 17.42 50.47 15.96 52.57 14.4 54.91 13.57 55.56 10.32 55.08 5.67 54.18 3.57 54.28 1.95 55.6 .95 57.23 .12 60.41 0 63.4 .65 64.9 1.72 65.54 3.36 66.11 5.12 66.28 6.46 66.26"/>
      <polygon class="cls-1" points="43.4 9.55 43.77 10.92 44.2 11.91 45.04 13.26 45.91 14.28 47.4 15.7 48.76 16.94 50.12 18.39 51.27 19.64 52.05 20.42 52.86 21.18 54.08 22.24 55.93 23.64 57.36 24.58 59.07 25.55 60.38 26.19 62.49 27.06 64.33 27.69 66.09 28.24 68.05 28.81 70.05 29.39 71.55 29.85 72.51 30.09 73.55 30.23 74.59 30.23 75.8 30.06 77.13 29.64 78.08 29.19 79.15 28.49 80.1 27.54 80.86 26.43 81.26 25.45 81.73 24.04 82 22.82 82.08 21.6 81.98 20.5 81.65 19.33 80.97 18.03 79.98 16.77 78.92 15.41 77.99 14.17 77.04 13.08 76.35 12.48 74.99 11.52 73.21 10.28 71.17 8.87 69.22 7.57 67.32 6.33 65.9 5.43 63.55 4.03 61.3 2.78 59.63 2.07 58.33 1.72 57.07 1.49 55.24 1.3 53.34 1.31 51.5 1.51 49.57 1.91 47.9 2.4 46.74 2.82 46.43 2.94 47.25 3.66 48.12 4.3 48.84 4.94 49.88 5.74 50.76 6.42 51.52 6.99 51.96 7.3 52.04 7.57 51.87 7.74 51.52 7.68 50.3 7.24 49.3 6.75 48.6 6.49 47.27 6.05 46.13 5.65 44.79 5.3 44.14 5.32 43.63 5.86 43.28 6.88 43.24 7.84 43.28 8.68 43.4 9.55"/>
      <polygon class="cls-3" points="79.24 31.13 78.35 32.67 77.46 34.03 76.44 35.24 75.49 36.36 73.35 38.95 71.28 41.46 69.2 43.89 67.52 45.75 65.93 47.47 64.49 49.08 62.93 50.84 61.26 52.75 59.77 54.47 57.1 57.52 55.11 59.77 51.78 63.63 49.77 66.2 47.49 69.14 44.88 72.72 42.36 76.22 39.84 79.45 36.56 83.03 33.58 86.23 31.58 88.62 30.05 90.76 29.55 91.5 28.74 91.82 27.01 91.85 25.55 91.75 24.48 91.76 23.77 91.66 21.2 91.52 20.4 91.43 18.33 91.12 16.38 90.73 14.32 90.38 12.38 89.57 10.72 88.89 8.69 87.61 7.15 86.2 5.77 84.49 4.59 82.38 3.91 80.32 3.58 77.81 3.62 75.8 4.04 72.85 4.96 70.28 6.31 68.16 7.31 66.71 7.66 66.1 8.76 65.7 10.7 65.45 12.41 65.49 13.96 66.14 15.65 67.35 17.24 68.85 18.45 70.15 19.11 70.48 19.08 69.88 18.43 68.41 16.69 66.67 14.67 65.34 12.23 64.34 9.41 64.56 6.55 64.86 3.73 65.09 3.18 65.11 3.42 64.54 4.16 63.53 4.84 61.9 5.2 59.57 5.02 57.29 4.89 55.83 5.99 55.72 8.76 56.08 11.54 56.56 14.28 56.76 16.45 56.79 19.06 56.54 21.34 56 22.31 55.85 23.45 55.92 24.02 55.76 23.56 55.32 22.05 55.33 20.22 55.64 18.58 55.77 17.27 55.68 15.92 55.42 16.42 54.17 17.76 52.23 19.21 49.62 20.64 46.68 23.04 42.93 26.05 38.63 29.23 33.64 32.21 28.76 34.55 24.63 36.18 21.18 37.77 17.57 39.39 14.64 41.02 11.72 41.91 9.98 42.4 11.44 42.83 12.53 43.74 14.02 45.67 15.96 47.56 17.96 49.15 19.38 50.41 20.73 52.53 22.76 54.32 24.26 55.4 25.14 57.67 26.37 60.65 27.79 62.9 28.59 65.26 29.5 67.53 30.16 70.02 30.85 71.72 31.46 73.72 31.87 75.63 31.96 77.27 31.72 79.24 31.13"/>
      <polygon class="cls-4" points="3.3 55.92 2.22 57.76 1.68 59.24 1.25 60.88 1.36 61.57 1.21 63.3 1.16 64.05 1.43 64.59 2.4 63.78 3.29 62.65 3.92 60.9 4.12 59.13 3.98 57.72 3.3 55.92"/>
    </g>
  </g>
</svg>