<?xml version="1.0" encoding="UTF-8"?>
<svg id="Lag_2" data-name="Lag 2" xmlns="http://www.w3.org/2000/svg" viewBox="0 0 356.37 237.53">
  <defs>
    <style>
      .cls-1, .cls-2 {
        stroke-width: 0px;
      }

      .cls-2 {
        fill: #fff;
      }
    </style>
  </defs>
  <g id="Layer_1" data-name="Layer 1">
    <g>
      <polygon class="cls-1" points="87.65 13.69 82.14 11.61 70.25 6.48 62.29 4.95 54.43 6.58 51.7 9.32 50.62 15.19 52.75 22.88 56.12 29.47 54.37 32.31 49.63 37.31 45.42 42.72 40.54 50.12 36.78 56.66 32.88 64.64 29.27 73.48 25.56 84.47 22.6 94.77 19.21 109.07 16.48 125.77 14.7 142.91 14.07 154.51 14.18 159.63 10.96 163.67 4.27 170.26 0 177.34 1.96 184.96 7.48 190.74 17.57 195.78 29.69 197.98 41.47 197.93 43.73 198.45 50.25 202.79 73.34 213 93.32 220.25 106.94 224.43 133.31 230.83 160.61 235.2 174.84 236.63 181.85 237.14 190.58 237.14 201.06 237.53 213.59 237.04 223.73 236.33 239.38 234.8 250.61 233.05 262.21 230.77 268.69 229.41 272.02 228.95 275.02 229.29 281.43 232.07 289.16 234.56 298.32 235.93 307.21 235.01 311.88 233.05 314.58 228.43 315.58 218.52 314.5 210.15 312.63 204.6 312.63 200.41 317.01 193.49 326.04 176.16 334.51 156.34 340.65 132.78 343.67 109.32 344.58 82.95 344.51 66.95 343.88 43.49 348.28 37.99 353.41 29.51 356.37 19.53 355.42 11.16 353.14 8.06 348.02 5.47 339.55 5.45 331.33 6.69 318.84 8.74 315.07 8.46 305.88 6.76 294.61 4.98 281.63 3.05 268.85 1.65 250.22 .37 233.05 0 212.98 .66 193.49 2.1 172.54 3.6 156.25 5.83 135.85 8.14 108.56 11.25 87.65 13.69"/>
      <polygon class="cls-2" points="94.2 20.85 87.82 18.13 81.4 14.5 70.47 9.83 60.41 8.24 55.45 10.72 55.09 17.2 59.4 27.41 63.75 34.67 67.67 43.84 58.57 33.47 52.58 40.18 45.9 49.91 38.78 63.09 31.48 81.71 27.23 96.18 23.25 113.88 20.94 129.21 19.43 145.18 19.23 157.41 27.67 153.73 30.3 155.07 28.65 156.26 21.61 159.75 13.19 166.63 5.34 175.83 4.35 178.01 5.23 182.1 11.18 188.44 21.09 192.77 34.68 194.19 44.87 194.89 58.77 196.98 48.13 197.57 60.68 203.95 81.93 212.29 107.59 220.43 133.4 226.6 165.09 231.55 193.46 233.04 226.83 231.57 255.44 227.49 265.91 225.16 256.33 220.42 250.31 215.98 249.71 214.07 256.64 217.22 267.21 221.89 277.08 226.11 290.74 230.85 304.99 231.18 310.47 225.23 310.04 212.61 307.24 204.27 302.46 195.28 297.55 184.71 304.94 192.06 309.63 198.1 318.75 180.41 327.02 163.02 333.36 142.76 337.59 118.79 339.1 95.75 339.1 76.54 339 60.25 338.9 47.55 324.01 53.07 333.67 45.33 343.78 35.95 350.48 23.9 351.57 14.68 346.53 9.12 328.94 10.51 314.95 12.68 304.11 15.41 299.32 17.43 293.65 20.96 298.72 15.37 308.46 11.23 290.56 8.03 263.95 4.86 249.05 3.6 226.06 3.69 200.55 5.03 164.38 8.49 125.97 12.58 89.57 16.14 94.2 20.85"/>
    </g>
  </g>
</svg>