<?xml version="1.0" encoding="UTF-8"?>
<svg id="Lag_2" data-name="Lag 2" xmlns="http://www.w3.org/2000/svg" viewBox="0 0 110.63 211.79">
  <defs>
    <style>
      .cls-1, .cls-2 {
        stroke-width: 0px;
      }

      .cls-2 {
        fill: #fff;
      }
    </style>
  </defs>
  <g id="Layer_1" data-name="Layer 1">
    <g>
      <polygon class="cls-1" points="2.17 211.79 .8 210.03 .15 208.11 .01 204.93 .08 200.68 1.63 197.11 3.19 196.09 4.61 195.84 5.63 195.55 5.99 194.15 6.05 190.42 7.35 114.52 7.15 113.2 6.51 112.09 6.24 109.81 6.25 105.53 6.24 101.81 6.31 100.53 7.01 99.42 7.34 98 7.03 80.57 6.28 35.52 5.97 18 5.46 16.95 4.48 16.69 2.97 16.37 1.19 14.99 .23 12.92 0 10.35 0 6.27 .42 3.46 1.61 1.52 3.35 .35 4.75 .03 7.48 0 13.5 0 24.4 0 42.37 0 95.34 0 105.37 .03 107.33 .35 108.91 1.36 110.04 3 110.63 5.59 110.63 8.22 110.59 11.85 110.21 13.54 108.88 15.7 107.03 16.77 105.72 16.95 104.85 17.79 104.75 21.52 103.86 78.14 103.55 98.31 104.04 99.74 104.48 100.84 104.54 103.2 104.54 110.11 104.28 112 103.86 112.73 103.52 113.69 103.58 117.03 104.01 144.38 104.52 176.05 104.9 195.14 106.05 195.84 107.91 196.28 109.64 197.88 110.55 200.38 110.63 204.65 110.59 207.69 109.85 210.08 108.66 211.73 2.17 211.79"/>
      <polygon class="cls-2" points="14 168.72 14.01 194.88 14.26 195.76 15.28 195.99 16.17 195.47 16.63 194.14 16.74 191.65 17.4 189.86 18.46 188.82 18.34 187.31 17.56 185.01 16.76 182.36 16 179.56 15.33 176.74 14.75 173.81 14 168.72"/>
      <polygon class="cls-2" points="13.1 156.88 13.58 156.89 13.86 154.19 14.26 151.2 15.3 146.23 16.45 142.46 17.63 139.43 19.15 136.28 21.74 132 25.15 127.63 28.65 124.08 32.97 120.45 38.42 116.43 44.4 111.95 47.64 108.62 49.66 104.83 50.05 101.14 49.33 98.08 46.74 93.79 43.33 90.14 37.37 84.65 32.92 80.53 27.98 75.31 25.82 72.62 22.99 68.43 20.84 64.24 19.02 58.97 17.61 52.11 17.21 48.68 16.97 42.12 17.32 36.07 18.25 29.65 19.29 24.7 18.38 22.93 17.57 20.33 17.49 18.19 16.86 17.07 14.58 16.95 13.99 17.93 13.92 23.56 13.36 57.26 12.65 98.54 13.48 100.17 13.73 109.81 13.34 112.29 12.65 113.3 12.82 121.37 13.1 156.88"/>
      <polygon class="cls-2" points="93.13 17.72 93.52 17.07 95.11 16.97 96.41 17.35 96.74 19.17 96.89 27.16 97.27 49.06 97.52 63.31 97.8 80.17 98.26 97.75 97.95 98.96 97.22 100.21 97.02 103.11 97.02 110 97.36 112.19 98.07 114.11 97.89 126.72 97.37 156.03 96.77 193.62 96.66 195.13 96.01 195.8 94.53 195.8 94.02 194.69 93.86 191.04 93.26 189.75 91.79 188.6 93.32 183.02 94.94 176.72 96.29 168.72 96.76 160.99 96.4 153.96 95.73 149.48 93.59 141.75 91.96 137.88 89.84 133.95 87.64 130.65 83.62 125.88 79.76 122.26 74.79 118.36 70.53 115.22 66.33 111.91 63.21 108.63 61.39 105.26 60.82 102 61.1 99.56 62.01 97.04 63.98 94 66.82 90.76 70.9 86.86 76.83 81.32 81.89 75.98 86.18 70.28 90.11 62.63 91.95 56.68 92.87 50.86 93.16 44.83 93.19 41.92 93.03 36.86 92.5 31.81 91.59 27.12 90.92 24.6 92.17 23.09 93.1 20.52 93.13 17.72"/>
      <polygon class="cls-2" points="21.74 188.42 27.5 188.6 88.09 188.58 89.36 188.09 90.97 183.47 93.36 174.13 94.35 167.28 94.58 159.53 94.03 152.44 92.2 144.46 88.51 136.18 85.29 131.42 81.43 127.07 77.65 123.67 72.54 119.75 66.77 115.47 63.45 112.51 60.82 109.25 59.28 105.87 58.71 102.32 59.4 97.79 61.52 93.53 65.64 88.65 70.59 83.95 76.36 78.52 80.72 73.88 85.72 66.78 88.21 61.75 89.78 56.9 90.54 52.22 90.92 47.95 91 40.17 90.54 33.46 89.77 28.81 89.06 26 88.56 24.99 87.41 24.61 83.02 24.61 24.25 24.61 22.11 24.73 21.21 26.03 20.28 29.98 19.48 35.97 19.23 43.37 19.31 47.47 19.91 53.37 21.04 58.19 22.46 62.42 25.58 68.28 29.42 73.46 33.24 77.6 38.38 82.4 42.65 86.25 47.07 90.67 50.05 94.56 51.7 98.31 52.23 102 51.79 105.35 49.98 109.34 47.25 112.63 44.36 115.13 40.29 118.15 36.07 121.2 31.73 124.59 26.22 130 22.76 134.63 20.34 138.91 18.32 143.81 16.34 151.88 15.78 157.21 15.72 163.04 15.94 167.37 16.78 173.19 18.29 179.95 19.46 184.08 20.72 187.56 21.74 188.42"/>
    </g>
  </g>
</svg>