<svg version="1.1" id="Layer_1" xmlns="http://www.w3.org/2000/svg" xmlns:xlink="http://www.w3.org/1999/xlink" x="0px" y="0px"
	 width="100%" viewBox="0 0 192 304" enable-background="new 0 0 192 304" xml:space="preserve">
<path fill="#000000" opacity="1.000000" stroke="none" 
	d="
M193.000000,150.000000 
	C193.000000,156.687637 193.000000,163.375290 192.782990,170.837173 
	C191.204453,173.322235 191.334534,175.351044 191.404266,177.339218 
	C191.700333,185.779953 192.071884,194.218185 192.339539,202.659744 
	C192.681244,213.436935 191.676788,224.242050 193.000000,235.000000 
	C193.000000,258.289551 193.000000,281.579132 193.000000,304.934326 
	C129.000061,304.934326 65.000031,304.934326 1.000000,304.934326 
	C1.000000,303.661591 1.000000,302.330780 1.247183,300.261841 
	C2.895668,297.043762 4.306172,294.815369 7.609598,294.291718 
	C11.055626,293.745544 11.607613,291.010559 11.669024,287.856659 
	C11.905132,275.730835 11.682960,263.619904 12.390030,251.469955 
	C13.412737,233.896225 12.645797,216.241852 13.420511,198.610504 
	C13.890032,187.924881 14.630440,177.133408 11.894197,166.368561 
	C10.017534,158.985458 13.045571,151.324417 13.438939,143.797333 
	C14.071089,131.701172 12.864051,119.531837 12.863036,107.434494 
	C12.860970,82.804222 11.109915,58.215942 11.613262,33.589119 
	C11.620066,33.256264 11.601905,32.922970 11.601336,32.589870 
	C11.596493,29.749178 10.556803,27.793707 7.445991,27.350283 
	C4.632864,26.949284 2.672833,25.156879 1.000000,23.000000 
	C1.000000,15.677593 1.000000,8.355186 1.000000,1.016390 
	C64.893707,1.016390 128.787430,1.016390 193.000000,1.016390 
	C193.000000,27.353371 193.000000,53.708027 192.970688,80.942802 
	C191.633606,89.410278 192.670853,97.057480 192.360062,104.670715 
	C191.941116,114.933449 192.836182,125.196983 191.612137,135.492966 
	C191.054672,140.182297 189.837051,145.444550 193.000000,150.000000 
M44.194599,39.236862 
	C41.022976,39.434311 40.081917,41.833363 39.508579,44.306343 
	C36.422115,57.619232 35.965034,71.032806 39.099918,84.362236 
	C42.699356,99.666931 53.206707,110.077309 64.990433,119.439552 
	C73.072380,125.860710 81.888176,131.383987 89.230423,138.704117 
	C100.618027,150.057404 99.454025,162.827682 86.179466,171.910278 
	C80.687187,175.668152 74.898888,178.998154 69.200592,182.449066 
	C58.883293,188.697235 48.822311,195.386688 41.941761,205.521606 
	C25.525675,229.702118 28.274139,254.871338 38.834602,280.263245 
	C39.844250,282.690887 41.862144,283.601013 44.459797,283.600830 
	C82.955429,283.598297 121.451088,283.611206 159.946655,283.669586 
	C162.827759,283.673950 164.758713,282.562622 165.695679,279.859619 
	C167.492905,274.674927 169.601059,269.565491 170.955383,264.265167 
	C178.935394,233.034607 170.354599,204.420975 141.643829,186.217117 
	C132.942596,180.700180 123.479958,176.246277 115.926300,169.038101 
	C106.214882,159.770859 106.224319,149.024872 115.602249,139.340240 
	C122.720299,131.989395 130.999008,126.044136 139.213806,120.108536 
	C165.150421,101.368011 171.563065,75.984657 165.398575,45.991039 
	C164.367371,40.973686 161.984863,38.400143 156.535034,38.836964 
	C152.062927,39.195423 147.541946,38.954002 143.042603,38.961517 
	C110.381447,39.016056 77.720299,39.066288 44.194599,39.236862 
M134.741486,129.283844 
	C129.656235,133.312897 124.359505,137.079849 119.722931,141.659821 
	C110.678177,150.594131 110.953476,158.955902 120.784836,167.036194 
	C128.402023,173.296677 137.346649,177.564529 145.442871,183.114212 
	C156.583267,190.750565 166.304153,199.747452 171.980881,212.286362 
	C174.352936,217.525787 176.051987,223.069901 178.444672,229.520538 
	C178.669189,227.239487 178.802277,225.994263 178.912918,224.747025 
	C180.047089,211.960815 179.478149,199.135773 179.785324,186.330643 
	C179.908463,181.197433 181.047287,176.037766 179.529495,170.944031 
	C178.077835,166.072128 178.083939,161.145828 178.421570,156.118896 
	C178.765213,151.002472 181.322769,146.336151 180.654938,140.968933 
	C178.759720,125.737450 179.840530,110.380020 179.205597,95.082443 
	C178.350052,74.469551 178.211990,53.827034 177.732559,33.198009 
	C177.702087,31.887102 177.673660,30.444246 177.131180,29.307676 
	C176.291519,27.548449 173.700806,26.733425 173.280884,28.463276 
	C172.170471,33.037579 167.901108,36.718533 169.139526,41.828960 
	C170.395142,47.010326 171.469391,52.212944 171.852631,57.516491 
	C172.974808,73.046165 171.536026,87.972542 162.810226,101.619598 
	C155.639175,112.835052 145.633148,120.948624 134.741486,129.283844 
M67.491882,177.898743 
	C73.667252,173.980698 80.300743,170.760284 85.843437,165.878555 
	C93.353943,159.263702 94.051338,152.386230 88.082817,144.546982 
	C85.941032,141.733902 83.334183,139.414581 80.568008,137.276993 
	C74.905777,132.901443 69.170883,128.620087 63.481136,124.279984 
	C48.413982,112.786888 36.284443,99.401833 33.129482,79.676453 
	C31.392862,68.818771 31.614004,58.072163 34.062878,47.500866 
	C35.361584,41.894596 35.773159,36.847275 33.086636,31.641844 
	C32.207611,29.938643 32.387917,27.281372 29.532900,27.851212 
	C27.224161,28.312016 27.419531,30.506357 27.380686,32.348213 
	C26.707109,64.286758 26.136734,96.228012 25.302258,128.162369 
	C24.984539,140.321060 27.647366,152.538315 26.492456,164.435135 
	C24.649822,183.416306 26.101059,202.314087 25.395279,221.227753 
	C25.257832,224.911087 25.375509,228.603943 25.375509,232.292404 
	C27.291195,225.418823 29.080629,218.721130 32.148060,212.405136 
	C39.677177,196.902359 52.447941,186.756470 67.491882,177.898743 
M178.453323,267.309784 
	C178.504166,265.217407 179.113098,263.048035 177.181763,260.422424 
	C175.150238,266.857758 173.549683,272.853699 171.355698,278.623962 
	C169.049957,284.688202 174.124191,288.250031 174.726013,293.507812 
	C178.029861,291.840393 177.655243,289.514313 177.730072,287.433075 
	C177.961487,280.996155 178.118652,274.556519 178.453323,267.309784 
M27.348406,261.309601 
	C27.533077,272.139679 26.984951,283.007874 28.752535,293.912292 
	C31.048979,289.432434 35.241451,285.519012 33.507607,280.366028 
	C31.348915,273.950409 29.444317,267.470154 27.348406,261.309601 
z"/>
</svg>