<svg version="1.1" id="Layer_1" xmlns="http://www.w3.org/2000/svg" xmlns:xlink="http://www.w3.org/1999/xlink" x="0px" y="0px"
	 width="100%" viewBox="0 0 859 490" enable-background="new 0 0 859 490" xml:space="preserve">
<path fill="#FFFFFF" opacity="1.000000" stroke="none" 
	d="
M235.000000,1.000001 
	C443.229797,1.000000 651.459595,1.000000 860.000000,1.000000 
	C860.000000,81.023056 860.000000,161.046524 859.605225,241.386215 
	C858.807068,238.633270 858.436707,235.559357 857.994934,232.495728 
	C855.641602,216.179199 849.451172,201.124115 840.784119,187.410370 
	C835.076538,178.379547 827.686462,170.150543 819.908203,162.764816 
	C812.385071,155.621521 803.270996,150.220444 792.061401,151.051529 
	C788.290344,151.331116 786.195068,150.354218 784.642090,146.525085 
	C783.004272,142.486572 779.809814,140.226624 774.550354,140.831161 
	C766.376038,141.770767 758.071777,142.088287 749.840210,141.899780 
	C737.997681,141.628571 726.168762,140.703888 714.338806,139.979446 
	C710.091248,139.719330 705.840942,139.361588 701.620789,138.822311 
	C689.524780,137.276688 677.477661,135.249603 665.345642,134.115204 
	C655.649109,133.208542 645.857605,133.284164 636.105835,133.011292 
	C622.524658,132.631226 608.927063,132.608887 595.363159,131.913834 
	C584.101074,131.336731 572.805176,130.509369 561.653198,128.899750 
	C543.717285,126.310951 525.877441,123.044701 508.015900,119.955780 
	C489.211029,116.703735 470.422577,113.355682 451.637878,109.988541 
	C439.231445,107.764687 426.887054,105.156990 414.435974,103.231003 
	C403.020081,101.465141 391.519531,100.157867 380.015991,99.077240 
	C372.137146,98.337112 364.175781,98.517296 356.276428,97.941139 
	C349.612213,97.455063 342.937622,96.751060 336.350311,95.649132 
	C324.244934,93.624153 312.127563,91.555054 300.169434,88.827881 
	C295.889984,87.851906 289.700714,85.850906 288.457611,82.706795 
	C284.589752,72.924011 282.769012,62.343430 279.975433,52.121162 
	C276.987152,41.186623 275.865234,29.880470 271.059235,19.254538 
	C266.829926,9.903664 259.005951,6.976881 250.818604,4.136156 
	C245.788559,2.390909 240.288834,1.999386 235.000000,1.000001 
z"/>
<path fill="#FFFFFF" opacity="1.000000" stroke="none" 
	d="
M735.000000,491.000000 
	C490.433594,491.000000 245.867188,491.000000 1.000000,491.000000 
	C1.000000,389.975281 1.000000,288.950287 1.400615,187.619156 
	C2.438621,191.985229 2.686084,196.751755 3.789320,201.311218 
	C6.658303,213.168152 10.018792,224.905243 12.973955,236.742386 
	C19.215366,261.742889 28.198097,285.519440 44.502308,305.855988 
	C49.061150,311.542297 53.982586,316.858185 62.611660,317.246674 
	C69.438820,317.554077 76.315880,319.483704 82.921158,321.507599 
	C108.967163,329.488251 134.868546,337.941193 160.918060,345.910126 
	C174.111404,349.946167 187.368149,353.972015 200.843414,356.841705 
	C219.486771,360.812012 238.415634,363.422333 257.123016,367.117249 
	C271.802124,370.016571 286.403717,373.389832 300.908997,377.068176 
	C322.227325,382.474304 343.499084,388.092896 364.657928,394.089447 
	C380.999542,398.720795 397.132263,404.087921 413.366760,409.098969 
	C448.903412,420.067932 484.383270,431.227570 520.014343,441.881042 
	C535.854797,446.617249 552.099915,449.987732 567.992126,454.565674 
	C590.940308,461.176147 613.681641,468.502777 636.608521,475.190125 
	C662.644470,482.784271 689.075500,487.741394 716.420288,487.214050 
	C722.586914,487.095123 728.805420,489.666840 735.000000,491.000000 
z"/>
<path fill="#010000" opacity="1.000000" stroke="none" 
	d="
M735.466125,491.000000 
	C728.805420,489.666840 722.586914,487.095123 716.420288,487.214050 
	C689.075500,487.741394 662.644470,482.784271 636.608521,475.190125 
	C613.681641,468.502777 590.940308,461.176147 567.992126,454.565674 
	C552.099915,449.987732 535.854797,446.617249 520.014343,441.881042 
	C484.383270,431.227570 448.903412,420.067932 413.366760,409.098969 
	C397.132263,404.087921 380.999542,398.720795 364.657928,394.089447 
	C343.499084,388.092896 322.227325,382.474304 300.908997,377.068176 
	C286.403717,373.389832 271.802124,370.016571 257.123016,367.117249 
	C238.415634,363.422333 219.486771,360.812012 200.843414,356.841705 
	C187.368149,353.972015 174.111404,349.946167 160.918060,345.910126 
	C134.868546,337.941193 108.967163,329.488251 82.921158,321.507599 
	C76.315880,319.483704 69.438820,317.554077 62.611660,317.246674 
	C53.982586,316.858185 49.061150,311.542297 44.502308,305.855988 
	C28.198097,285.519440 19.215366,261.742889 12.973955,236.742386 
	C10.018792,224.905243 6.658303,213.168152 3.789320,201.311218 
	C2.686084,196.751755 2.438621,191.985229 1.400615,187.156525 
	C1.000000,177.645767 1.000000,168.291550 1.391098,158.324768 
	C2.185686,155.312454 2.544548,152.904190 2.999697,150.514282 
	C6.784192,130.642487 15.409695,113.088448 29.826330,98.947090 
	C37.927643,91.000458 46.764233,83.403107 56.409817,77.516914 
	C74.806053,66.290680 95.163246,59.950710 116.834976,59.097458 
	C131.129807,58.534649 145.435928,58.934944 159.573090,61.920143 
	C166.488449,63.380386 173.565659,64.074173 179.323029,64.929642 
	C176.908157,55.287373 174.232147,45.579868 172.091812,35.755665 
	C170.287964,27.475899 176.899017,14.839698 184.456009,12.280461 
	C197.264099,7.942907 209.977371,3.110710 223.828079,2.906310 
	C227.227356,2.856146 230.609818,1.666033 234.000000,1.000001 
	C234.000000,1.000000 234.500000,1.000000 234.750000,1.000001 
	C240.288834,1.999386 245.788559,2.390909 250.818604,4.136156 
	C259.005951,6.976881 266.829926,9.903664 271.059235,19.254538 
	C275.865234,29.880470 276.987152,41.186623 279.975433,52.121162 
	C282.769012,62.343430 284.589752,72.924011 288.457611,82.706795 
	C289.700714,85.850906 295.889984,87.851906 300.169434,88.827881 
	C312.127563,91.555054 324.244934,93.624153 336.350311,95.649132 
	C342.937622,96.751060 349.612213,97.455063 356.276428,97.941139 
	C364.175781,98.517296 372.137146,98.337112 380.015991,99.077240 
	C391.519531,100.157867 403.020081,101.465141 414.435974,103.231003 
	C426.887054,105.156990 439.231445,107.764687 451.637878,109.988541 
	C470.422577,113.355682 489.211029,116.703735 508.015900,119.955780 
	C525.877441,123.044701 543.717285,126.310951 561.653198,128.899750 
	C572.805176,130.509369 584.101074,131.336731 595.363159,131.913834 
	C608.927063,132.608887 622.524658,132.631226 636.105835,133.011292 
	C645.857605,133.284164 655.649109,133.208542 665.345642,134.115204 
	C677.477661,135.249603 689.524780,137.276688 701.620789,138.822311 
	C705.840942,139.361588 710.091248,139.719330 714.338806,139.979446 
	C726.168762,140.703888 737.997681,141.628571 749.840210,141.899780 
	C758.071777,142.088287 766.376038,141.770767 774.550354,140.831161 
	C779.809814,140.226624 783.004272,142.486572 784.642090,146.525085 
	C786.195068,150.354218 788.290344,151.331116 792.061401,151.051529 
	C803.270996,150.220444 812.385071,155.621521 819.908203,162.764816 
	C827.686462,170.150543 835.076538,178.379547 840.784119,187.410370 
	C849.451172,201.124115 855.641602,216.179199 857.994934,232.495728 
	C858.436707,235.559357 858.807068,238.633270 859.605225,241.851227 
	C860.000000,254.354233 860.000000,266.708466 859.592590,279.697174 
	C858.456970,288.982880 857.925293,297.656311 856.950928,306.279694 
	C855.729187,317.091522 854.456665,327.915558 852.628479,338.635803 
	C850.788635,349.424133 848.178223,360.079102 846.016357,370.814819 
	C842.239319,389.571655 837.505188,408.070007 828.900574,425.248291 
	C820.093750,442.830383 811.842834,460.783112 795.941101,473.729248 
	C785.492432,482.235840 773.939453,487.383728 760.662781,489.034332 
	C757.082397,489.479401 753.552856,490.333618 750.000000,491.000000 
	C745.310730,491.000000 740.621521,491.000000 735.466125,491.000000 
M567.228760,138.080215 
	C562.604736,137.678513 557.949463,137.495163 553.361877,136.838745 
	C528.333191,133.257401 503.265991,129.896057 478.319214,125.805412 
	C454.350708,121.875175 430.448120,117.469078 406.639282,112.663879 
	C389.366913,109.177902 371.913269,108.180519 354.437988,106.861137 
	C344.069519,106.078308 333.759033,104.526276 323.423065,103.314667 
	C314.804779,102.304405 306.187347,101.286247 296.805084,100.181580 
	C298.141022,111.426285 301.926361,120.103874 306.925049,128.358398 
	C311.365601,135.691177 315.895905,142.975662 320.077972,150.454041 
	C320.974335,152.056946 320.543762,154.401901 320.724457,156.405014 
	C320.140503,156.529388 319.556519,156.653778 318.972565,156.778152 
	C318.014771,155.124298 317.050018,153.474442 316.100555,151.815811 
	C313.324982,146.967010 311.246155,141.519913 307.667114,137.364136 
	C289.711090,116.514534 279.431976,91.969574 271.953003,65.931244 
	C268.534149,54.028286 264.764404,42.225994 261.141449,30.381828 
	C259.682678,25.612858 257.068756,25.527905 252.780304,27.455324 
	C241.796143,32.392082 231.185730,38.088902 219.114838,40.653370 
	C208.162064,42.980297 197.612991,43.872364 186.835144,40.516827 
	C185.139069,39.988777 183.188065,40.279610 180.622101,40.156715 
	C182.248825,43.435066 183.279099,45.880367 184.615936,48.144688 
	C192.380447,61.296040 200.320236,74.345024 207.977158,87.558205 
	C210.932068,92.657333 215.019791,97.909996 215.617157,103.415428 
	C217.507706,120.839020 213.644135,137.549866 204.891556,152.767700 
	C201.774338,158.187531 197.192871,162.865372 189.276672,165.721909 
	C190.391479,162.446121 190.826782,160.451004 191.712112,158.680969 
	C197.740341,146.628906 204.264526,134.689438 206.300201,121.201843 
	C207.220337,115.105469 207.663269,108.282288 205.833893,102.588486 
	C203.450684,95.170959 198.913239,88.344559 194.659164,81.674286 
	C192.705750,78.611389 189.490891,74.769623 186.383224,74.289467 
	C169.325333,71.653885 152.696686,66.655800 134.943649,67.633492 
	C121.484550,68.374702 108.574814,70.813179 95.965050,74.685158 
	C74.705299,81.213226 56.008373,91.965858 41.633163,109.703369 
	C29.337955,124.874374 21.710346,141.923050 20.308105,161.154663 
	C19.203300,176.307007 20.150768,191.412994 23.777601,206.587189 
	C30.709753,235.590424 41.214737,263.172821 53.204506,290.302765 
	C55.442406,295.366608 59.255802,299.005615 65.029060,299.878448 
	C90.019363,303.656830 113.881210,311.665009 137.753891,319.520111 
	C165.733719,328.726715 193.548996,338.394714 222.485107,344.367310 
	C246.093414,349.240204 269.654022,354.358002 293.174500,359.639954 
	C344.963013,371.269928 395.581787,387.100952 446.262421,402.682068 
	C486.274811,414.983398 526.124146,427.824402 566.232666,439.800476 
	C596.161377,448.736969 626.327026,456.905396 656.516846,464.927826 
	C666.492310,467.578613 676.872559,468.706299 687.067688,470.530396 
	C687.289490,470.102844 687.511230,469.675293 687.732971,469.247772 
	C686.450806,467.623688 685.324280,465.841583 683.861694,464.400574 
	C672.205933,452.916321 665.438354,438.909210 663.064087,422.890076 
	C661.273376,410.808105 660.026917,398.632568 658.934814,386.463074 
	C657.442200,369.830505 656.060852,353.178314 655.169556,336.505829 
	C654.773438,329.095154 656.053101,321.608856 655.942688,314.166229 
	C655.647888,294.307678 661.407959,275.824402 669.179443,258.027802 
	C679.601318,234.161697 691.300537,210.854675 701.807190,187.023636 
	C706.606750,176.137283 712.741577,166.679779 722.099121,159.319321 
	C725.615173,156.553650 728.936584,153.540482 733.186768,149.925690 
	C727.138245,149.925690 722.274170,150.316193 717.494629,149.846558 
	C706.659119,148.781921 695.890259,147.011017 685.048035,146.047455 
	C670.710388,144.773239 656.339722,143.766144 641.962524,143.072174 
	C628.362244,142.415695 614.712524,142.682449 601.127136,141.849655 
	C590.094604,141.173370 579.125183,139.469559 567.228760,138.080215 
M842.135071,319.607941 
	C842.452332,318.336182 842.854675,317.078918 843.073792,315.790466 
	C845.356140,302.373840 847.901184,288.992950 849.783508,275.519806 
	C851.480896,263.370972 852.169617,251.105728 849.488037,238.959427 
	C845.300842,219.992859 837.626892,202.539505 825.489746,187.338135 
	C818.310608,178.346451 810.316284,170.005539 802.116028,160.724075 
	C800.403687,165.104340 799.053711,168.043411 798.093018,171.104645 
	C794.036804,184.029953 790.138245,197.004898 786.050354,209.919968 
	C785.631653,211.242737 784.332825,212.286896 783.442383,213.460312 
	C782.968628,213.246384 782.494873,213.032440 782.021118,212.818512 
	C781.680542,209.923492 781.098328,207.032791 781.046265,204.132599 
	C780.908325,196.438950 781.265930,188.729309 780.923767,181.048431 
	C780.587402,173.496918 779.879089,165.938980 778.844971,158.451385 
	C778.338684,154.785614 776.235291,151.435593 772.000977,151.193008 
	C767.908386,150.958557 763.602600,150.787018 759.685242,151.766663 
	C739.200073,156.889740 723.611572,168.798447 713.973938,187.574997 
	C707.158325,200.853622 701.863647,214.907272 695.203125,228.272659 
	C687.355408,244.020447 679.630920,259.721619 674.551514,276.679810 
	C669.624451,293.129730 666.135315,309.840912 666.204773,326.933350 
	C666.267639,342.409485 667.774780,357.904419 669.172852,373.343262 
	C670.444031,387.381378 672.124023,401.399170 674.160522,415.347534 
	C677.668396,439.373932 692.132446,454.809662 713.870911,464.009613 
	C726.118530,469.192963 738.919983,468.556580 751.840271,467.078369 
	C771.896484,464.783691 788.324219,456.704346 799.319824,439.133484 
	C805.766113,428.832367 812.898682,418.919708 818.749084,408.296234 
	C827.677673,392.083344 829.450378,373.565979 834.020386,355.969299 
	C837.069336,344.229279 839.428223,332.310028 842.135071,319.607941 
M202.654953,34.000389 
	C221.277481,34.449074 237.439392,28.685472 251.125702,15.315880 
	C235.413315,8.920791 185.786346,16.681185 178.949631,26.609785 
	C186.043823,30.762371 193.514786,33.423698 202.654953,34.000389 
z"/>
<path fill="#FFFFFF" opacity="1.000000" stroke="none" 
	d="
M233.531342,1.000001 
	C230.609818,1.666033 227.227356,2.856146 223.828079,2.906310 
	C209.977371,3.110710 197.264099,7.942907 184.456009,12.280461 
	C176.899017,14.839698 170.287964,27.475899 172.091812,35.755665 
	C174.232147,45.579868 176.908157,55.287373 179.323029,64.929642 
	C173.565659,64.074173 166.488449,63.380386 159.573090,61.920143 
	C145.435928,58.934944 131.129807,58.534649 116.834976,59.097458 
	C95.163246,59.950710 74.806053,66.290680 56.409817,77.516914 
	C46.764233,83.403107 37.927643,91.000458 29.826330,98.947090 
	C15.409695,113.088448 6.784192,130.642487 2.999697,150.514282 
	C2.544548,152.904190 2.185686,155.312454 1.391098,157.856110 
	C1.000000,105.725418 1.000000,53.450832 1.000000,1.000000 
	C78.354141,1.000000 155.708405,1.000000 233.531342,1.000001 
z"/>
<path fill="#FFFFFF" opacity="1.000000" stroke="none" 
	d="
M750.468628,491.000000 
	C753.552856,490.333618 757.082397,489.479401 760.662781,489.034332 
	C773.939453,487.383728 785.492432,482.235840 795.941101,473.729248 
	C811.842834,460.783112 820.093750,442.830383 828.900574,425.248291 
	C837.505188,408.070007 842.239319,389.571655 846.016357,370.814819 
	C848.178223,360.079102 850.788635,349.424133 852.628479,338.635803 
	C854.456665,327.915558 855.729187,317.091522 856.950928,306.279694 
	C857.925293,297.656311 858.456970,288.982880 859.592590,280.165833 
	C860.000000,350.237366 860.000000,420.474731 860.000000,491.000000 
	C823.646301,491.000000 787.291809,491.000000 750.468628,491.000000 
z"/>
<path fill="#603813" opacity="1.000000" stroke="none" 
	d="
M567.678223,138.150818 
	C579.125183,139.469559 590.094604,141.173370 601.127136,141.849655 
	C614.712524,142.682449 628.362244,142.415695 641.962524,143.072174 
	C656.339722,143.766144 670.710388,144.773239 685.048035,146.047455 
	C695.890259,147.011017 706.659119,148.781921 717.494629,149.846558 
	C722.274170,150.316193 727.138245,149.925690 733.186768,149.925690 
	C728.936584,153.540482 725.615173,156.553650 722.099121,159.319321 
	C712.741577,166.679779 706.606750,176.137283 701.807190,187.023636 
	C691.300537,210.854675 679.601318,234.161697 669.179443,258.027802 
	C661.407959,275.824402 655.647888,294.307678 655.942688,314.166229 
	C656.053101,321.608856 654.773438,329.095154 655.169556,336.505829 
	C656.060852,353.178314 657.442200,369.830505 658.934814,386.463074 
	C660.026917,398.632568 661.273376,410.808105 663.064087,422.890076 
	C665.438354,438.909210 672.205933,452.916321 683.861694,464.400574 
	C685.324280,465.841583 686.450806,467.623688 687.732971,469.247772 
	C687.511230,469.675293 687.289490,470.102844 687.067688,470.530396 
	C676.872559,468.706299 666.492310,467.578613 656.516846,464.927826 
	C626.327026,456.905396 596.161377,448.736969 566.232666,439.800476 
	C526.124146,427.824402 486.274811,414.983398 446.262421,402.682068 
	C395.581787,387.100952 344.963013,371.269928 293.174500,359.639954 
	C269.654022,354.358002 246.093414,349.240204 222.485107,344.367310 
	C193.548996,338.394714 165.733719,328.726715 137.753891,319.520111 
	C113.881210,311.665009 90.019363,303.656830 65.029060,299.878448 
	C59.255802,299.005615 55.442406,295.366608 53.204506,290.302765 
	C41.214737,263.172821 30.709753,235.590424 23.777601,206.587189 
	C20.150768,191.412994 19.203300,176.307007 20.308105,161.154663 
	C21.710346,141.923050 29.337955,124.874374 41.633163,109.703369 
	C56.008373,91.965858 74.705299,81.213226 95.965050,74.685158 
	C108.574814,70.813179 121.484550,68.374702 134.943649,67.633492 
	C152.696686,66.655800 169.325333,71.653885 186.383224,74.289467 
	C189.490891,74.769623 192.705750,78.611389 194.659164,81.674286 
	C198.913239,88.344559 203.450684,95.170959 205.833893,102.588486 
	C207.663269,108.282288 207.220337,115.105469 206.300201,121.201843 
	C204.264526,134.689438 197.740341,146.628906 191.712112,158.680969 
	C190.826782,160.451004 190.391479,162.446121 189.276672,165.721909 
	C197.192871,162.865372 201.774338,158.187531 204.891556,152.767700 
	C213.644135,137.549866 217.507706,120.839020 215.617157,103.415428 
	C215.019791,97.909996 210.932068,92.657333 207.977158,87.558205 
	C200.320236,74.345024 192.380447,61.296040 184.615936,48.144688 
	C183.279099,45.880367 182.248825,43.435066 180.622101,40.156715 
	C183.188065,40.279610 185.139069,39.988777 186.835144,40.516827 
	C197.612991,43.872364 208.162064,42.980297 219.114838,40.653370 
	C231.185730,38.088902 241.796143,32.392082 252.780304,27.455324 
	C257.068756,25.527905 259.682678,25.612858 261.141449,30.381828 
	C264.764404,42.225994 268.534149,54.028286 271.953003,65.931244 
	C279.431976,91.969574 289.711090,116.514534 307.667114,137.364136 
	C311.246155,141.519913 313.324982,146.967010 316.100555,151.815811 
	C317.050018,153.474442 318.014771,155.124298 318.972565,156.778152 
	C319.556519,156.653778 320.140503,156.529388 320.724457,156.405014 
	C320.543762,154.401901 320.974335,152.056946 320.077972,150.454041 
	C315.895905,142.975662 311.365601,135.691177 306.925049,128.358398 
	C301.926361,120.103874 298.141022,111.426285 296.805084,100.181580 
	C306.187347,101.286247 314.804779,102.304405 323.423065,103.314667 
	C333.759033,104.526276 344.069519,106.078308 354.437988,106.861137 
	C371.913269,108.180519 389.366913,109.177902 406.639282,112.663879 
	C430.448120,117.469078 454.350708,121.875175 478.319214,125.805412 
	C503.265991,129.896057 528.333191,133.257401 553.361877,136.838745 
	C557.949463,137.495163 562.604736,137.678513 567.678223,138.150818 
z"/>
<path fill="#A67C52" opacity="1.000000" stroke="none" 
	d="
M842.115540,320.039490 
	C839.428223,332.310028 837.069336,344.229279 834.020386,355.969299 
	C829.450378,373.565979 827.677673,392.083344 818.749084,408.296234 
	C812.898682,418.919708 805.766113,428.832367 799.319824,439.133484 
	C788.324219,456.704346 771.896484,464.783691 751.840271,467.078369 
	C738.919983,468.556580 726.118530,469.192963 713.870911,464.009613 
	C692.132446,454.809662 677.668396,439.373932 674.160522,415.347534 
	C672.124023,401.399170 670.444031,387.381378 669.172852,373.343262 
	C667.774780,357.904419 666.267639,342.409485 666.204773,326.933350 
	C666.135315,309.840912 669.624451,293.129730 674.551514,276.679810 
	C679.630920,259.721619 687.355408,244.020447 695.203125,228.272659 
	C701.863647,214.907272 707.158325,200.853622 713.973938,187.574997 
	C723.611572,168.798447 739.200073,156.889740 759.685242,151.766663 
	C763.602600,150.787018 767.908386,150.958557 772.000977,151.193008 
	C776.235291,151.435593 778.338684,154.785614 778.844971,158.451385 
	C779.879089,165.938980 780.587402,173.496918 780.923767,181.048431 
	C781.265930,188.729309 780.908325,196.438950 781.046265,204.132599 
	C781.098328,207.032791 781.680542,209.923492 782.021118,212.818512 
	C782.494873,213.032440 782.968628,213.246384 783.442383,213.460312 
	C784.332825,212.286896 785.631653,211.242737 786.050354,209.919968 
	C790.138245,197.004898 794.036804,184.029953 798.093018,171.104645 
	C799.053711,168.043411 800.403687,165.104340 802.116028,160.724075 
	C810.316284,170.005539 818.310608,178.346451 825.489746,187.338135 
	C837.626892,202.539505 845.300842,219.992859 849.488037,238.959427 
	C852.169617,251.105728 851.480896,263.370972 849.783508,275.519806 
	C847.901184,288.992950 845.356140,302.373840 843.073792,315.790466 
	C842.854675,317.078918 842.452332,318.336182 842.115540,320.039490 
z"/>
<path fill="#C59B6D" opacity="1.000000" stroke="none" 
	d="
M202.182373,33.999779 
	C193.514786,33.423698 186.043823,30.762371 178.949631,26.609785 
	C185.786346,16.681185 235.413315,8.920791 251.125702,15.315880 
	C237.439392,28.685472 221.277481,34.449074 202.182373,33.999779 
z"/>
</svg>